<svg xmlns="http://www.w3.org/2000/svg" viewBox="0 0 45 45" aria-hidden="true" height="64" width="64" class="w-11 h-11 mb-md"><path fill="currentColor" fill-rule="evenodd" d="M20 18h4v3h-3v3h-3v-4a2 2 0 0 1 2-2Zm7 3h5v-3h-5v3Zm-3 18v1a1 1 0 0 1-1 1h-3a2 2 0 0 1-2-2v-4h3v3h2a1 1 0 0 1 1 1Zm-6-7h3v-5h-3v5Zm14.841.766c-.358.124-.655.38-.832.714l-1.426 2.695-1.607-7.369 6.533 3.029-2.668.931Zm7.29-2.096-12.634-5.858a1.5 1.5 0 0 0-2.096 1.681l3.126 14.326a1.5 1.5 0 0 0 2.791.382l3.067-5.797 5.609-1.957a1.502 1.502 0 0 0 .137-2.777ZM41 20v3a1 1 0 0 1-1 1h-1a1 1 0 0 1-1-1v-2h-3v-3h4a2 2 0 0 1 2 2ZM14 8h24V5H14v3ZM7 8h4V5H7v3Zm34-3a3 3 0 0 0-3-3H7a3 3 0 0 0-3 3v31a3 3 0 0 0 3 3h6a1 1 0 0 0 1-1v-1a1 1 0 0 0-1-1H7V11h31v2a1 1 0 0 0 1 1h1a1 1 0 0 0 1-1V8h-.021c.01-1.235.021-3 .021-3Z" clip-rule="evenodd"/></svg>