<svg xmlns="http://www.w3.org/2000/svg" viewBox="0 0 45 45" aria-hidden="true" height="64" width="64" class="w-11 h-11 mb-md"><path fill="currentColor" fill-rule="evenodd" d="M40.5 22a1.5 1.5 0 0 0-1.5 1.5V38H7.951C17 35 28 26 31 20.079V24.5a1.5 1.5 0 0 0 3 0v-8a1.5 1.5 0 0 0-1.5-1.5h-8a1.5 1.5 0 0 0 0 3h4.326C26 24 13 34 5 36.057V11h19a1.5 1.5 0 1 0 0-3H5a3 3 0 0 0-3 3v27a3 3 0 0 0 3 3h34a3 3 0 0 0 3-3V23.5a1.5 1.5 0 0 0-1.5-1.5Zm1-7h-2a1.5 1.5 0 1 0 0 3h2a1.5 1.5 0 1 0 0-3Zm-10-5A1.5 1.5 0 0 0 33 8.5v-2a1.5 1.5 0 1 0-3 0v2a1.5 1.5 0 0 0 1.5 1.5Zm4.939 1.561a1.502 1.502 0 0 1 0-2.122l2-2a1.502 1.502 0 0 1 2.122 0 1.502 1.502 0 0 1 0 2.122l-2 2A1.495 1.495 0 0 1 37.5 12c-.384 0-.768-.146-1.061-.439Z" clip-rule="evenodd"/></svg>