<svg width="210" height="90" viewBox="0 0 210 90" fill="none" xmlns="http://www.w3.org/2000/svg">
<g clip-path="url(#clip0_1317_23633)">
<path d="M175.983 49.7471C173.761 55.5559 168.321 58.5915 161.425 57.8795C155.985 57.3548 151.197 52.7077 150.315 47.1237C149.319 40.7902 151.771 35.2436 157.058 32.5079C158.552 31.7209 161.578 30.634 165.678 31.1212C170.849 31.9457 174.182 34.9438 176.06 39.5909C177.4 42.8889 177.247 46.1868 175.983 49.7471ZM163.379 51.0587C166.942 51.0587 169.777 48.1356 169.815 44.4629C169.815 40.7902 167.057 37.8295 163.571 37.8295C160.199 37.8295 157.173 41.015 157.211 44.6128C157.211 48.323 159.855 51.0587 163.379 51.0587ZM52.2427 43.7133C55.1159 45.9994 56.0354 48.8101 54.9627 52.1081C53.8517 55.481 51.17 57.1299 47.7222 57.2798C43.2016 57.5047 38.6811 57.3173 34.1606 57.3173C33.2411 57.3173 32.9347 56.8676 33.0113 56.0056C33.2028 52.6327 33.471 49.2224 33.471 45.8495C33.471 41.5022 33.2028 37.1549 33.0496 32.8077C33.0113 32.1331 33.0879 31.6084 33.969 31.6459C38.911 31.7583 43.8529 31.7583 48.7565 32.0581C51.3233 32.2081 53.392 33.5197 54.3114 36.0681C55.2309 38.654 54.7712 40.9401 52.8557 42.9263C52.6641 43.1137 52.4726 43.3386 52.3193 43.5634C52.281 43.6384 52.281 43.6759 52.2427 43.7133ZM42.2056 46.8239C40.9414 46.674 40.5966 47.2361 40.5966 48.3979C40.5966 51.8457 40.7881 52.0706 44.3892 51.7708C44.8106 51.7333 45.2321 51.6584 45.6535 51.6209C46.9177 51.4335 47.7222 50.8339 47.7222 49.4847C47.7605 48.0606 47.1475 47.2361 45.7301 46.9738C45.0022 46.8239 42.627 46.8988 42.2056 46.8239ZM45.5768 41.0525C46.5346 40.7902 47.1858 40.1905 47.1475 39.0663C47.1092 37.9794 46.4963 37.2674 45.5385 37.1175C44.1977 36.8926 42.8185 36.8926 41.4777 36.8926C41.2095 36.8926 40.7115 37.155 40.7115 37.3049C40.6732 38.5416 40.52 39.7783 40.8264 40.9776C40.9031 41.2774 44.734 41.2774 45.5768 41.0525ZM121.162 57.3548C118.978 57.3548 116.909 57.3923 114.879 57.2798C114.496 57.2798 114.036 56.5303 113.883 56.0431C113.002 53.3823 113.347 53.5697 110.55 53.5697C109.056 53.5697 107.524 53.6071 106.029 53.5697C104.842 53.5322 104.229 53.9444 103.961 55.1062C103.386 57.4297 103.348 57.4297 100.858 57.4297C99.6701 57.4297 98.4825 57.4672 97.3332 57.3923C95.6859 57.3173 95.5709 57.2049 96.1456 55.7058C98.2143 50.0843 100.321 44.4629 102.428 38.8414C103.233 36.7052 104.076 34.5691 104.804 32.3954C105.11 31.4585 105.57 31.1212 106.642 31.1962C108.022 31.3086 109.439 31.2711 110.856 31.2337C111.738 31.1962 112.236 31.4585 112.58 32.283C115.684 40.1531 118.978 48.5853 122.081 56.4554C122.196 56.8676 122.464 57.3923 121.162 57.3548ZM106.834 47.386C108.213 47.386 109.899 47.386 110.358 47.386C110.818 47.386 111.01 47.1987 110.895 46.7489C110.32 44.6877 108.941 40.5653 108.941 40.5653H108.826C108.826 40.5653 106.642 46.3742 106.527 46.7489C106.374 47.1237 106.681 47.386 106.834 47.386ZM147.787 57.3548C145.603 57.3548 143.535 57.3923 141.504 57.2798C141.121 57.2798 140.661 56.5303 140.508 56.0431C139.627 53.3823 139.972 53.5697 137.175 53.5697C135.681 53.5697 134.149 53.6071 132.655 53.5697C131.467 53.5322 130.854 53.9444 130.586 55.1062C130.011 57.4297 129.973 57.4297 127.483 57.4297C126.295 57.4297 125.108 57.4672 123.958 57.3923C122.311 57.3173 122.196 57.2049 122.771 55.7058C124.84 50.0843 126.947 44.4629 129.054 38.8414C129.858 36.7052 130.701 34.5691 131.429 32.3954C131.735 31.4585 132.195 31.1212 133.268 31.1962C134.647 31.3086 136.064 31.2711 137.482 31.2337C138.363 31.1962 138.861 31.4585 139.206 32.283C142.309 40.1531 145.603 48.5853 148.706 56.4554C148.86 56.8676 149.128 57.3923 147.787 57.3548ZM133.459 47.386C134.838 47.386 136.524 47.386 136.984 47.386C137.443 47.386 137.635 47.1987 137.52 46.7489C136.945 44.6877 135.566 40.5653 135.566 40.5653H135.451C135.451 40.5653 133.268 46.3742 133.153 46.7489C133.038 47.1237 133.344 47.386 133.459 47.386ZM81.473 57.3548C79.2893 57.3548 77.2206 57.3923 75.1902 57.2798C74.8071 57.2798 74.3474 56.5303 74.1942 56.0431C73.313 53.3823 73.6578 53.5697 70.8612 53.5697C69.3671 53.5697 67.8348 53.6071 66.3407 53.5697C65.1531 53.5322 64.5401 53.9444 64.272 55.1062C63.6973 57.4297 63.659 57.4297 61.1689 57.4297C59.9813 57.4297 58.7937 57.4672 57.6444 57.3923C55.9971 57.3173 55.8821 57.2049 56.4568 55.7058C58.5255 50.0843 60.6325 44.4629 62.7396 38.8414C63.5441 36.7052 64.3869 34.5691 65.1148 32.3954C65.4212 31.4585 65.881 31.1212 66.9536 31.1962C68.3328 31.3086 69.7502 31.2711 71.1677 31.2337C72.0488 31.1962 72.5468 31.4585 72.8916 32.283C75.9947 40.1531 79.2893 48.5853 82.3924 56.4554C82.5073 56.8676 82.7755 57.3923 81.473 57.3548ZM67.1452 47.386C68.5243 47.386 70.2099 47.386 70.6697 47.386C71.1294 47.386 71.3209 47.1987 71.206 46.7489C70.6314 44.6877 69.2139 40.5278 69.2139 40.5278H69.099C69.099 40.5278 66.9153 46.3367 66.8004 46.7115C66.6855 47.0862 66.9919 47.386 67.1452 47.386ZM86.3766 47.0113C86.4149 50.609 86.3383 54.2442 82.8521 56.6053C82.7755 56.6427 82.7755 56.7552 82.7755 56.8301C84.193 58.2542 85.6104 59.6034 86.9513 61.065C87.6025 61.8145 88.0622 61.8145 88.7901 61.1399C91.2419 58.8913 93.0042 56.1181 93.1957 52.9326C93.6171 46.1868 93.6171 31.7583 93.6171 31.7583L85.9169 31.7209C85.8786 31.7583 86.3 41.9894 86.3766 47.0113ZM140.163 61.7395V63.8382H139.052V59.8282H140.163L141.926 62.1143V59.8282H143.037L142.998 63.8757H141.887L140.163 61.7395ZM154.989 61.1399C154.989 61.2898 154.836 61.3273 154.568 61.2149C153.802 60.99 153.265 61.1399 152.997 61.7395C152.729 62.3392 152.959 63.2761 153.533 63.5009C153.802 63.6134 154.376 63.6508 154.644 63.3885C154.721 63.2761 154.951 63.3885 154.951 63.5009C154.951 63.6134 154.606 64.1755 153.304 63.8008C153.227 63.8757 153.074 64.3254 152.997 64.4379C153.304 64.7002 153.955 64.8501 154.606 64.8501C155.257 64.8501 155.985 64.1006 155.985 63.5009C155.985 63.0512 155.985 62.0768 155.985 61.1774C155.64 61.1774 155.181 61.1774 154.989 61.1399ZM154.874 62.4891C154.874 62.7514 154.53 62.9763 154.146 62.8638C153.917 62.7889 153.84 62.6015 153.84 62.4141C153.84 62.2642 153.993 61.852 154.453 61.8145C154.951 61.852 154.874 62.3017 154.874 62.4891ZM162.268 63.5759C162.46 63.8382 162.804 63.9132 162.958 63.9507C163.571 64.0631 164.03 63.8757 164.337 63.351C164.643 62.8638 164.567 61.9269 164.222 61.6271C163.8 61.2523 163.149 60.99 162.651 61.2149C162.575 61.2523 162.383 61.3648 162.268 61.4397C162.268 61.3648 162.268 61.065 162.268 61.065H161.272V64.8876H162.268C162.23 64.8501 162.268 63.7258 162.268 63.5759ZM162.919 61.9269C163.226 61.9269 163.379 62.3017 163.379 62.6015C163.379 62.9013 163.226 63.1637 162.919 63.1637C162.651 63.1637 162.23 63.0887 162.23 62.564C162.23 62.0019 162.613 61.9269 162.919 61.9269ZM149.243 63.6508C149.473 63.9507 150.086 64.0256 150.277 63.7633C150.66 63.2011 151.12 62.639 151.12 61.9269C151.12 61.5896 151.12 61.2149 151.12 61.2149H150.124C150.124 61.2149 150.124 62.1518 150.124 62.3766C150.124 62.564 149.856 62.9388 149.856 62.9388H149.588C149.588 62.9388 149.434 62.6765 149.434 62.3766C149.434 62.0768 149.434 61.2149 149.434 61.2149H148.323C148.323 61.2149 148.323 62.0394 148.323 62.3766C148.323 62.7139 148.132 62.9388 148.132 62.9388H147.864C147.864 62.9388 147.672 62.6015 147.672 62.4891C147.672 62.3766 147.672 61.2149 147.672 61.2149C147.672 61.2149 146.944 61.2149 146.676 61.2149C146.676 61.6646 146.638 62.2267 146.714 62.564C146.829 63.0512 147.097 63.2761 147.442 63.7258C147.71 64.0631 148.132 64.1006 148.438 63.7633C148.591 63.6134 148.668 63.426 148.86 63.2011C149.013 63.3885 149.128 63.5384 149.243 63.6508ZM170.275 65C170.62 65 171.194 64.8876 171.462 64.7002C171.845 64.4004 172.114 63.9881 172.343 63.6508C172.573 63.3136 172.88 62.7889 172.88 62.4141C172.88 62.0019 172.88 61.2149 172.88 61.2149H171.884C171.884 61.2149 171.884 61.8145 171.884 62.1518C171.884 62.4516 171.731 62.7139 171.616 62.9388C170.849 62.9388 171.003 61.7021 171.003 61.2149C170.696 61.2149 170.313 61.2149 170.007 61.2149C170.007 62.0394 169.892 62.8264 170.658 63.426C171.003 63.6883 171.041 63.9507 170.581 64.1006C170.466 64.138 170.275 64.213 170.007 64.2879C170.122 64.5503 170.236 64.8501 170.275 65ZM168.053 61.1399C167.402 61.0275 166.942 61.2523 166.635 61.777C166.329 62.3017 166.405 63.0137 166.827 63.5384C167.21 64.0256 167.67 64.0256 168.206 63.8757C168.283 63.8382 168.666 63.6883 168.666 63.6883V63.9881H169.547V61.065H168.666V61.4397C168.627 61.4397 168.206 61.1774 168.053 61.1399ZM168.053 63.1262C167.708 63.1262 167.325 62.9763 167.325 62.5265C167.325 62.0768 167.746 61.9269 167.938 61.9269C168.168 61.9269 168.589 62.1143 168.589 62.4891C168.589 62.8638 168.398 63.1262 168.053 63.1262ZM159.28 62.564C159.318 61.6271 158.782 61.1399 157.748 61.1024C156.943 61.065 156.368 61.6271 156.368 62.4891C156.33 63.426 156.79 63.8757 157.824 63.9132C158.744 63.9132 159.242 63.4635 159.28 62.564ZM158.36 62.6015C158.36 62.8264 158.169 63.1262 157.786 63.1262C157.403 63.1262 157.249 62.7139 157.249 62.5265C157.249 62.3392 157.326 61.8894 157.824 61.8894C158.322 61.8894 158.36 62.3766 158.36 62.6015ZM146.408 62.564C146.446 61.6271 145.91 61.1399 144.875 61.1024C144.071 61.065 143.496 61.6271 143.496 62.4891C143.458 63.426 143.918 63.8757 144.952 63.9132C145.872 63.9132 146.408 63.4635 146.408 62.564ZM145.488 62.6015C145.488 62.8264 145.297 63.1262 144.914 63.1262C144.531 63.1262 144.377 62.7139 144.377 62.5265C144.377 62.3392 144.454 61.8894 144.952 61.8894C145.45 61.8894 145.488 62.3766 145.488 62.6015ZM164.873 63.9881H165.984V59.8282H164.873V63.9881ZM175.025 61.6271V60.7652L175.408 61.6271H175.753L176.136 60.7652V61.6271H176.749V59.416H176.251L175.6 60.6527L174.987 59.416H174.489V61.6271H175.025ZM172.65 59.9032H173.148V61.6271H173.761V59.9032H174.259V59.416H172.65V59.9032Z" fill="black"/>
</g>
<defs>
<clipPath id="clip0_1317_23633">
<rect width="210" height="89.9999" fill="white"/>
</clipPath>
</defs>
</svg>
