<svg width="210" height="90" viewBox="0 0 210 90" fill="none" xmlns="http://www.w3.org/2000/svg">
<g clip-path="url(#clip0_1317_23614)">
<path d="M197 52.4999C197 52.6345 197 52.7499 197 52.8845C196.712 53.173 196.405 53.4614 196.117 53.7499C194.868 54.9422 193.389 55.1922 191.853 54.5768C190.393 53.9999 190.105 52.6922 190.105 51.2499C190.124 48.3653 190.105 45.4999 190.105 42.4614C189.298 42.4614 188.53 42.4614 187.762 42.4614C187.762 42.3653 187.762 42.2883 187.762 42.1922C188.491 42.1922 189.221 42.1922 190.066 42.1922C190.066 41.0383 190.066 39.9999 190.066 38.8845C190.815 38.7691 191.468 38.673 192.237 38.5576C192.237 39.7499 192.237 40.8653 192.237 42.0768C193.6 42.0768 194.868 42.0768 196.117 42.0768C196.117 42.173 196.136 42.2691 196.136 42.3653C194.887 42.3653 193.639 42.3653 192.275 42.3653C192.275 43.1922 192.275 43.8653 192.275 44.5191C192.275 46.6922 192.275 48.8653 192.275 51.0576C192.275 51.4999 192.294 51.9614 192.352 52.4037C192.602 54.0576 193.965 54.7306 195.387 53.846C196.001 53.4999 196.481 52.9614 197 52.4999ZM93.7257 45.0383C95.8768 49.5191 93.2839 54.423 88.4246 54.8845C87.3106 54.9806 86.0814 54.6537 85.0058 54.2691C84.2568 53.9999 83.7382 53.846 83.162 54.4614C82.9699 54.6537 82.701 54.7499 82.3169 54.9999C82.3169 54.4999 82.3169 54.173 82.3169 53.8268C82.3169 48.3845 82.3169 42.9422 82.3169 37.4806C82.3169 34.9999 82.3169 34.9999 79.9161 34.4422C81.4142 34.2306 82.9123 34.0383 84.5257 33.8076C84.5257 37.0768 84.5257 40.2499 84.5257 43.3845C85.5628 42.8845 86.4656 42.2306 87.4643 41.9806C90.134 41.3076 92.5541 42.5576 93.7257 45.0383ZM91.9395 48.6537C91.9395 47.1153 91.8242 46.1153 91.344 44.9422C90.2493 42.2114 87.0225 41.673 85.0058 43.8076C84.7754 44.0576 84.5641 44.4614 84.5641 44.7883C84.5257 47.2499 84.5257 49.7306 84.5641 52.1922C84.5641 52.5768 84.7562 52.9999 84.9866 53.3076C86.4463 55.1345 89.1737 55.0768 90.6334 53.1922C91.6514 51.8653 91.9395 50.1922 91.9395 48.6537ZM49.1854 35.4422C49.5695 35.6345 49.9729 35.6922 50.357 35.7499C51.5862 35.923 52.0088 36.4037 52.0856 37.6537C52.1048 37.9422 52.0856 38.2306 52.0856 38.5191C52.0856 42.9037 52.0856 47.2883 52.0856 51.6922C52.0856 53.7306 51.7591 54.096 49.7808 54.3268C49.5695 54.346 49.339 54.4037 49.1278 54.4614C49.1278 54.4999 49.147 54.5191 49.147 54.5576C51.9127 54.5576 54.6785 54.5576 57.4635 54.5576C57.1946 54.3845 56.9257 54.3268 56.6568 54.3076C54.9666 54.1153 54.5441 53.6922 54.5056 51.9999C54.4672 50.596 54.4864 49.173 54.4864 47.7691C54.4864 46.9806 54.4864 46.1922 54.4864 45.3845C56.2727 45.4037 57.9052 45.3076 59.4033 46.1345C60.6902 46.8268 60.863 48.1922 61.3432 49.3845C61.3432 46.6345 61.3432 43.8845 61.3432 41.1345C60.8823 42.5383 60.4981 43.9806 58.9232 44.5768C57.5019 45.1153 56.023 45.1345 54.4672 44.9999C54.4672 42.0383 54.4672 39.1537 54.4672 36.2691C54.4672 36.1153 54.5056 35.9614 54.544 35.6153C56.2919 35.7306 58.0013 35.7499 59.6914 35.9614C62.1883 36.2691 63.7248 37.7114 64.3587 40.1537C64.4547 40.4999 64.5699 40.846 64.6852 41.1922C64.7428 41.173 64.8196 41.173 64.8772 41.1537C64.762 39.2691 64.6468 37.3653 64.5123 35.4806C59.3649 35.4422 54.2752 35.4422 49.1854 35.4422ZM131.64 45.1922C130.526 44.5768 129.316 44.1537 128.144 43.6345C126.992 43.1153 125.782 42.6345 124.706 41.9999C123.438 41.2499 122.901 40.0191 123.131 38.5576C123.362 37.0191 124.245 36.0191 125.724 35.5383C128.24 34.7114 130.775 35.7499 132.139 38.2306C132.6 39.0768 132.965 39.9806 133.368 40.8653C133.426 40.846 133.483 40.846 133.541 40.8268C133.407 38.9806 133.272 37.1345 133.138 35.423C131.678 35.3076 130.353 35.173 129.028 35.1345C127.856 35.096 126.665 35.0576 125.494 35.2306C123.073 35.5768 121.614 37.0191 121.249 39.2691C120.865 41.5383 121.767 43.3653 123.919 44.4999C125.013 45.0768 126.204 45.4806 127.337 45.9806C128.413 46.4614 129.527 46.8845 130.545 47.4806C132.005 48.346 132.581 49.7306 132.273 51.423C131.985 53.0383 130.967 53.9999 129.431 54.4614C126.07 55.4422 123.304 54.096 122.017 50.8268C121.71 50.0383 121.441 49.2306 121.153 48.4422C121.057 48.4614 120.98 48.4806 120.884 48.4999C120.999 50.2114 121.095 51.9422 121.249 53.6537C121.268 53.8653 121.518 54.1922 121.71 54.2306C124.533 54.8845 127.357 55.3653 130.238 54.6537C132.504 54.096 133.887 52.7114 134.194 50.7306C134.597 48.2306 133.791 46.423 131.64 45.1922ZM79.1286 53.346C79.3783 53.0383 79.5896 52.673 79.8585 52.2691C79.7624 53.4037 78.6869 54.5383 77.5537 54.7883C76.2092 55.096 75.3257 54.6345 74.3846 53.0576C72.9248 54.6537 71.1386 55.2499 69.0259 54.846C67.2973 54.4999 66.2217 53.3653 66.1065 51.7499C66.0104 50.173 66.8747 48.923 68.5457 48.3653C70.1975 47.8076 71.8877 47.9422 73.5587 48.3076C73.8276 48.3653 74.0964 48.4422 74.423 48.5191C74.423 47.1345 74.4998 45.8268 74.4038 44.5191C74.2885 43.1922 73.5779 42.423 72.4831 42.173C70.985 41.8076 69.5637 42.346 68.6033 43.7306C68.8146 43.9037 69.218 44.0383 69.2756 44.2883C69.4292 44.8076 69.6213 45.4614 69.41 45.8653C69.1987 46.2691 68.4881 46.6345 68.0463 46.596C67.6046 46.5576 67.0284 46.0576 66.8171 45.6153C66.433 44.7883 66.7595 43.9999 67.3933 43.346C69.2372 41.423 73.5971 41.3076 75.5177 43.1537C76.3244 43.923 76.6701 44.9037 76.6701 45.9999C76.6701 48.173 76.6509 50.3653 76.6894 52.5383C76.6894 53.173 76.4973 53.9999 77.3616 54.2499C78.1491 54.4614 78.6676 53.9037 79.1286 53.346ZM74.4998 48.7114C73.2706 48.6153 72.099 48.4422 70.9466 48.4614C69.7942 48.4806 68.9299 49.1153 68.6033 50.2499C68.2576 51.4999 68.2384 52.7499 69.2372 53.7499C70.0823 54.596 71.1578 54.6153 72.1758 54.1922C73.2129 53.7691 74.2501 53.173 74.4422 51.9614C74.615 50.9999 74.4998 49.9806 74.4998 48.7114ZM101.178 51.8845C101.197 46.2499 101.178 40.596 101.178 34.9614C101.178 34.596 101.178 34.2306 101.178 33.7883C99.5645 33.9999 98.124 34.2114 96.6835 34.4037C96.6835 34.4614 96.6643 34.5191 96.6643 34.596C96.7795 34.6153 96.914 34.6345 97.0292 34.6537C98.7578 34.7691 99.0459 35.0768 99.0459 36.846C99.0459 39.2883 99.0459 41.7114 99.0459 44.1537C99.0459 46.846 99.0459 49.5383 99.0459 52.2306C99.0459 53.923 98.7962 54.1922 97.1637 54.346C96.9716 54.3653 96.7987 54.423 96.6259 54.4806C96.6259 54.5191 96.6451 54.5383 96.6451 54.5768C98.9499 54.5768 101.255 54.5768 103.771 54.5768C103.502 54.4422 103.425 54.3653 103.348 54.3653C101.351 54.3653 101.178 53.5576 101.178 51.8845ZM117.388 50.8653C116.716 53.423 113.95 55.2114 111.396 54.9422C107.554 54.5383 105.269 51.2114 105.941 46.9806C106.575 42.9037 110.8 40.6345 114.507 42.3653C116.447 43.2691 117.638 45.3845 117.35 47.5191C114.373 47.5191 111.377 47.5191 108.419 47.5191C107.766 50.0576 108.976 53.173 110.877 54.0191C113.028 54.9806 115.199 53.9806 117.388 50.8653ZM108.284 47.173C110.551 47.173 112.702 47.173 115.18 47.173C114.853 45.9037 114.699 44.7499 114.258 43.7114C113.47 41.9037 111.415 41.5383 109.975 42.8845C108.784 44.0191 108.438 45.5191 108.284 47.173ZM169.592 52.6345C170.034 52.1345 170.38 51.5576 170.898 50.8268C170.207 53.4037 167.46 55.1922 164.906 54.923C160.968 54.4999 158.587 50.8845 159.489 46.6922C160.238 43.1537 163.427 41.1345 166.903 41.9614C169.438 42.5576 170.956 44.6345 170.879 47.5191C167.863 47.5191 164.848 47.5191 161.717 47.5191C161.66 49.5576 161.794 51.4614 163.081 53.0383C164.598 54.923 167.748 54.7306 169.592 52.6345ZM161.833 47.1537C164.061 47.1537 166.192 47.1537 168.689 47.1537C168.344 45.846 168.171 44.6153 167.691 43.5576C166.922 41.9037 164.925 41.5768 163.58 42.8076C162.313 43.9422 161.909 45.4614 161.833 47.1537ZM176.334 47.4999C176.257 49.4422 176.391 51.2114 177.467 52.7499C178.927 54.8845 182.192 54.846 184.151 52.673C184.612 52.1537 184.977 51.5576 185.399 50.9999C184.631 53.0576 183.267 54.423 181.097 54.8076C178.811 55.2114 176.775 54.6537 175.373 52.7306C173.568 50.2306 173.395 47.4999 174.797 44.7499C175.892 42.6345 178.35 41.4999 180.809 41.8268C183.248 42.1537 184.842 43.5383 185.38 45.846C185.495 46.3268 185.495 46.846 185.572 47.4999C182.441 47.4999 179.426 47.4999 176.334 47.4999ZM176.41 47.1537C178.638 47.1537 180.79 47.1537 183.248 47.1537C182.941 45.8845 182.787 44.7306 182.345 43.7114C181.558 41.8653 179.426 41.5383 178.005 42.9422C176.871 44.0768 176.506 45.5191 176.41 47.1537ZM155.322 41.8268C154.611 42.0576 153.939 42.4806 153.382 42.9806C152.786 43.4999 152.344 44.2114 151.691 45.0191C151.691 43.846 151.691 42.8845 151.691 41.8268C150.097 42.0576 148.638 42.2499 147.159 42.4614C147.543 42.6922 147.889 42.6922 148.234 42.7306C149.041 42.846 149.521 43.2883 149.521 44.1345C149.521 47.0576 149.54 49.9614 149.521 52.8845C149.521 53.7114 149.099 54.1922 148.234 54.2691C147.869 54.3076 147.485 54.3653 147.12 54.4037C147.139 54.4614 147.139 54.4999 147.159 54.5576C149.463 54.5576 151.768 54.5576 154.073 54.5576C154.073 54.4999 154.092 54.4614 154.092 54.4037C153.958 54.3845 153.823 54.346 153.689 54.3268C151.922 54.1345 151.711 53.9037 151.711 52.1153C151.711 50.3845 151.711 48.6537 151.711 46.923C151.711 45.2691 152.671 43.8845 154.284 43.2691C154.323 43.346 154.361 43.423 154.38 43.5191C154.688 44.596 155.36 45.1153 156.205 44.923C157.05 44.7306 157.588 43.8653 157.396 42.9999C157.185 42.096 156.301 41.4999 155.322 41.8268ZM142.664 54.096C141.531 53.6537 141.454 52.6345 141.454 51.6153C141.454 48.8653 141.454 46.1153 141.454 43.346C141.454 43.0768 141.493 42.7883 141.512 42.423C142.799 42.423 144.009 42.423 145.219 42.423C145.219 42.346 145.219 42.2499 145.219 42.173C143.99 42.173 142.741 42.173 141.416 42.173C141.416 40.923 141.416 39.8076 141.416 38.596C140.628 38.7114 139.956 38.7883 139.169 38.9037C139.169 39.9999 139.169 41.0383 139.169 42.096C138.343 42.1345 137.632 42.173 136.922 42.2114C136.922 42.2883 136.922 42.3653 136.941 42.4422C137.632 42.4422 138.324 42.4422 139.188 42.4422C139.188 42.923 139.188 43.2691 139.188 43.596C139.188 46.1922 139.169 48.7883 139.188 51.3845C139.207 53.1537 139.841 54.1922 141.166 54.673C142.991 55.3268 145.065 54.4806 146.102 52.4806C145.757 52.8076 145.545 52.9806 145.372 53.173C144.643 53.9422 143.797 54.5383 142.664 54.096ZM32.0146 51.1345C31.0927 50.846 30.4589 50.2499 30.3052 49.2691C30.1324 48.2499 30.4973 47.423 31.3616 46.8845C31.9762 46.4999 32.6676 46.2306 33.3399 45.923C34.2618 45.4806 35.2413 45.1345 36.0864 44.596C37.2772 43.8653 37.6038 42.6537 37.3925 41.3268C37.2004 40.096 36.4898 39.1922 35.2797 38.8268C34.5499 38.6153 33.7816 38.4806 33.0326 38.4614C28.3846 38.4422 23.7365 38.4614 19.1077 38.4614C18.8965 38.4614 18.666 38.5191 18.205 38.5576C20.2985 39.173 20.2985 39.173 20.2985 41.1153C20.2985 43.673 20.3177 46.2499 20.2985 48.8076C20.2985 49.4037 20.3562 50.096 20.0873 50.5768C19.8376 50.9999 19.1653 51.1922 18.7236 51.4614C20.5098 51.4614 22.3729 51.4614 23.967 51.4614C23.5829 51.1537 22.661 50.7691 22.6033 50.2883C22.4113 48.673 22.5265 46.9999 22.5265 45.3076C24.5432 45.2691 26.3486 45.4614 26.9248 47.8076C26.9248 46.0576 26.9248 44.2883 26.9248 42.4037C25.7724 44.7306 24.7353 45.3076 22.5073 44.9422C22.5073 42.923 22.5073 40.8845 22.5073 38.8653C26.3486 38.4037 27.501 39.0383 29.2104 42.5191C29.633 41.7306 29.9787 40.9037 30.4781 40.173C31.3616 38.8653 32.9749 38.4037 34.377 38.9614C36.0288 39.6153 36.3745 41.673 34.9532 42.7499C34.3194 43.2114 33.5511 43.4806 32.8405 43.846C31.8994 44.3076 30.9006 44.673 30.0171 45.2306C28.8839 45.9422 28.4806 47.096 28.6342 48.4037C28.7879 49.7883 29.5946 50.6922 30.8814 51.1153C33.071 51.8268 35.2221 51.4422 37.3733 50.923C37.4501 49.673 37.5269 48.5191 37.6038 47.346C37.162 47.9422 36.9123 48.5768 36.605 49.1922C35.6831 51.0191 33.9161 51.7499 32.0146 51.1345ZM42.9624 44.9999C42.9624 53.2691 36.2401 59.9999 27.9812 59.9999C19.7223 59.9999 13 53.2691 13 44.9999C13 36.7306 19.7223 29.9999 27.9812 29.9999C36.2401 29.9999 42.9624 36.7306 42.9624 44.9999ZM42.0021 44.9999C42.0021 38.096 37.0084 32.346 30.4397 31.173L27.9812 33.2691L25.5228 31.173C18.9541 32.346 13.9603 38.096 13.9603 44.9999C13.9603 51.9037 18.9541 57.6537 25.5228 58.8268L27.9812 56.7306L30.4397 58.8268C37.0084 57.6537 42.0021 51.9037 42.0021 44.9999Z" fill="black"/>
</g>
<defs>
<clipPath id="clip0_1317_23614">
<rect width="210" height="89.9999" fill="white"/>
</clipPath>
</defs>
</svg>
