<svg width="210" height="90" viewBox="0 0 210 90" fill="none" xmlns="http://www.w3.org/2000/svg">
<g clip-path="url(#clip0_1317_23639)">
<path d="M99.3852 27.957C99.3477 36.7842 92.2561 43.8762 83.4761 43.8007C74.7711 43.763 67.7921 36.5956 67.8296 27.8061C67.8671 18.9789 74.9587 11.9624 83.7763 12.0002C92.4062 12.0756 99.4227 19.243 99.3852 27.957ZM125.313 12.0002C116.608 12.0002 109.554 19.0921 109.554 27.8816C109.554 36.7088 116.608 43.8384 125.388 43.8007C134.093 43.763 141.109 36.6333 141.109 27.8438C141.072 19.0921 134.055 12.0002 125.313 12.0002ZM138.895 27.957C138.858 35.4262 132.779 41.4996 125.313 41.4996C117.808 41.4996 111.73 35.3885 111.73 27.8438C111.73 20.3747 117.808 14.3013 125.275 14.3013C132.817 14.3013 138.933 20.4501 138.895 27.957ZM159.27 69.0752C159.907 67.1136 159.87 65.1143 159.119 63.1527C158.256 60.9647 156.643 59.7199 154.279 59.4935C152.891 59.3803 151.615 59.833 150.339 60.7761C150.339 58.7391 150.339 56.8529 150.339 55.0045C148.538 55.0045 146.887 55.0045 145.199 55.0045C145.199 55.8721 145.199 56.6643 145.199 57.5319C145.874 57.5319 146.475 57.5319 147.188 57.5319C147.188 62.7 147.188 67.7926 147.188 72.9229C148.238 72.9229 149.176 72.9229 150.152 72.9229C150.189 72.6212 150.227 72.3571 150.264 71.9799C153.041 74.281 157.881 73.4133 159.27 69.0752ZM150.752 64.058C151.202 62.9263 152.103 62.3605 153.341 62.3605C154.579 62.3228 155.48 62.9263 156.005 63.9826C156.756 65.4915 156.756 67.0759 156.08 68.5848C155.555 69.7542 154.654 70.3955 153.341 70.3955C152.065 70.3955 151.202 69.7165 150.715 68.5848C150.414 67.9058 150.452 64.8125 150.752 64.058ZM65.053 65.4538C65.2406 63.9826 66.2162 62.964 67.7546 62.5491C69.5181 62.0964 70.4561 62.7754 70.5312 64.5861C70.6062 65.831 70.5687 67.0759 70.5687 68.283C70.5687 69.7919 70.5687 71.3008 70.5687 72.8475C72.3322 72.8475 73.9456 72.8475 75.559 72.8475C75.559 72.0176 75.559 71.2254 75.559 70.3955C74.9212 70.3578 74.3208 70.3578 73.6454 70.32C73.6454 68.2076 73.683 66.2082 73.6454 64.1712C73.5704 61.0024 71.6193 59.0786 68.6551 59.5312C67.3794 59.7199 66.1787 60.3989 64.8654 60.8893C64.8654 59.0786 64.8654 57.0415 64.8654 55.0045C63.0644 55.0045 61.4134 55.0045 59.7625 55.0045C59.7625 55.8721 59.7625 56.6643 59.7625 57.5319C60.4379 57.5319 61.0382 57.5319 61.6761 57.5319C61.6761 61.8323 61.6761 66.0951 61.6761 70.3578C61.0382 70.3955 60.4754 70.4332 59.9126 70.4709C59.9126 71.3386 59.9126 72.1308 59.9126 72.9229C62.2389 72.9229 64.4902 72.9229 66.7415 72.9229C66.7415 72.093 66.7415 71.3008 66.7415 70.4709C66.1411 70.4332 65.5408 70.3955 64.978 70.3955C65.0155 68.6602 64.8279 67.0004 65.053 65.4538ZM81.7501 65.416C82.0503 63.7562 83.1759 62.6623 84.9394 62.4359C86.1776 62.2473 86.9656 62.8131 87.0782 64.0957C87.1907 65.3406 87.1907 66.6232 87.1907 67.9058C87.2282 69.5656 87.1907 71.1877 87.1907 72.8852C88.9167 72.8852 90.5677 72.8852 92.1811 72.8852C92.1811 72.0176 92.1811 71.2254 92.1811 70.4332C91.5432 70.3955 90.9804 70.3578 90.305 70.3578C90.305 69.8296 90.305 69.377 90.305 68.9243C90.2675 67.1136 90.3425 65.2651 90.1549 63.4544C89.8923 60.5875 87.8286 59.0031 85.0145 59.6067C83.7387 59.8707 82.5756 60.5875 81.525 61.0402C81.1498 60.7007 80.6995 60.0216 80.1742 59.9462C78.936 59.7576 77.6978 59.9085 76.422 59.9085C76.422 60.7761 76.422 61.5683 76.422 62.4736C77.0974 62.4736 77.6978 62.4736 78.2981 62.4736C78.2981 65.152 78.2981 67.7549 78.2981 70.3955C77.6603 70.4332 77.0974 70.4709 76.5721 70.4709C76.5721 71.3763 76.5721 72.1685 76.5721 72.9229C78.8985 72.9229 81.1122 72.9229 83.3635 72.9229C83.3635 72.093 83.3635 71.3008 83.3635 70.4332C82.7632 70.3955 82.2379 70.3955 81.4124 70.3578C81.525 68.6225 81.4499 67.0004 81.7501 65.416ZM118.446 70.4332L116.72 70.3955C116.72 70.3955 116.72 65.3029 116.608 63.4922C116.533 62.1341 115.895 61.0024 114.694 60.248C112.518 58.8522 108.353 59.3426 106.402 61.3042C106.814 62.021 107.227 62.7754 107.49 63.2658C108.953 62.8886 110.229 62.3605 111.542 62.2473C112.968 62.1341 113.643 63.0772 113.418 64.5484C113.118 64.5484 112.78 64.5107 112.48 64.5484C110.979 64.8502 109.403 65.0011 107.978 65.5669C106.102 66.2837 105.426 67.868 105.726 69.9428C105.951 71.6026 107.34 72.8475 109.178 73.1493C110.942 73.4511 112.405 72.9607 113.681 71.7535C114.131 72.4703 114.844 73.0361 115.407 73.0361C115.97 73.0361 118.484 73.0361 118.484 73.0361V70.4332H118.446ZM110.604 70.6218C109.741 70.6218 109.103 70.2446 108.878 69.377C108.653 68.5093 109.028 67.868 109.854 67.4908C111.054 66.925 112.293 66.8118 113.606 66.925C113.531 69.0752 112.255 70.6218 110.604 70.6218ZM145.912 66.4723C146.024 62.6623 143.023 59.6067 139.045 59.4935C135.068 59.3803 131.991 62.2473 131.841 66.2082C131.691 70.056 134.693 73.1115 138.745 73.2624C142.61 73.3756 145.799 70.3578 145.912 66.4723ZM138.82 62.3228C141.072 62.3228 142.685 63.9448 142.723 66.2837C142.76 68.6225 141.109 70.3955 138.858 70.3955C136.644 70.3955 135.031 68.6979 135.031 66.3591C134.993 64.058 136.607 62.3605 138.82 62.3228ZM52.896 73.2247C56.8733 73.1493 59.9126 70.0937 59.875 66.2459C59.8375 62.3982 56.7608 59.4558 52.821 59.4558C48.8062 59.4558 45.8045 62.4359 45.8045 66.3591C45.842 70.2823 48.9563 73.3002 52.896 73.2247ZM52.8585 62.3228C55.0723 62.3228 56.6857 64.058 56.6857 66.3591C56.6857 68.6979 54.9972 70.4332 52.746 70.3955C50.5697 70.3578 48.9938 68.6225 48.9938 66.3214C48.9938 63.9826 50.6448 62.3228 52.8585 62.3228ZM161.633 72.0553C163.585 73.4888 167.374 73.602 169.363 72.2439C171.502 70.7727 171.577 67.7926 169.4 66.3591C168.575 65.7933 167.599 65.5292 166.699 65.1143C165.986 64.8125 165.235 64.5484 164.598 64.1335C163.885 63.6808 163.922 62.9263 164.598 62.4736C165.986 61.5683 167.599 62.3228 167.712 63.9448C167.712 64.0203 167.712 64.1335 167.712 64.1335C167.712 64.1335 170.151 64.1712 170.451 64.1712C170.451 63.379 170.564 61.6815 169.325 60.6252C167.749 59.3426 164.748 59.0786 162.534 60.3989C160.545 61.606 160.32 64.3598 162.121 65.8687C162.834 66.4723 163.772 66.8495 164.635 67.2645C165.461 67.6794 166.399 67.9435 167.187 68.3962C167.487 68.5471 167.787 68.8111 167.787 69.377C167.749 69.9428 167.374 70.1314 167.037 70.2823C166.023 70.7727 164.11 70.6595 163.509 70.2446C162.909 69.8296 163.059 68.283 163.059 68.283C163.059 68.283 161.483 68.2453 160.545 68.2453C160.395 69.7542 160.32 71.1122 161.633 72.0553ZM127.189 70.2446C125.425 70.8104 123.662 70.1314 122.761 68.6979C121.786 67.189 121.861 65.0388 122.949 63.6808C123.962 62.4359 125.313 62.2096 126.813 62.4359C128.014 62.6245 128.352 63.4167 128.202 64.5107C129.177 64.5107 130.04 64.5107 130.903 64.5107C131.316 61.6437 130.828 60.4366 127.564 59.6821C127.264 59.6067 126.926 59.569 126.588 59.5312C122.949 59.0786 119.759 61.4551 119.009 65.152C118.334 68.6979 120.397 72.0553 123.924 72.9984C126.851 73.7906 129.365 72.8098 131.654 70.9236C131.166 70.2069 130.678 69.4901 130.228 68.8111C129.14 69.3015 128.202 69.9051 127.189 70.2446ZM97.6592 77.1856C97.6217 77.7892 97.9219 77.9401 98.4847 77.9778C101.787 78.2042 103.963 76.2426 104 72.8852C104.038 68.7357 104 64.6239 104 60.4743C104 60.248 103.963 60.0216 103.925 59.7953C102.199 59.7953 100.548 59.7953 98.8224 59.7953C98.8224 60.6629 98.8224 61.4551 98.8224 62.3228C99.4978 62.3228 100.136 62.3228 100.811 62.3228C100.811 66.0951 100.886 69.7542 100.774 73.4133C100.736 74.5827 99.9105 75.1486 98.7098 75.1863C98.4097 75.1863 98.147 75.1863 97.6592 75.1863C97.6592 75.9785 97.6967 76.5821 97.6592 77.1856ZM41.0768 63.5676C41.0768 66.4723 41.0768 69.377 41.0768 72.2439C41.0768 74.6959 40.589 75.224 38.1501 75.2995C38.1126 75.2995 38.0375 75.3749 38 75.3749C38 76.2048 38 77.0348 38 77.8269C41.3394 78.6191 44.116 76.6198 44.1535 73.3002C44.2286 68.962 44.1911 64.6616 44.1911 60.3234C44.1911 60.1725 44.1535 60.0216 44.116 59.8707C42.4275 59.8707 40.8141 59.8707 39.1256 59.8707C39.1256 60.7384 39.1256 61.5306 39.1256 62.3605C39.7635 62.3605 40.3263 62.3605 41.0768 62.3605C41.0768 62.8509 41.0768 63.1904 41.0768 63.5676Z" fill="black"/>
</g>
<defs>
<clipPath id="clip0_1317_23639">
<rect width="210" height="89.9999" fill="white"/>
</clipPath>
</defs>
</svg>
