<svg width="210" height="90" viewBox="0 0 210 90" fill="none" xmlns="http://www.w3.org/2000/svg">
<g clip-path="url(#clip0_1317_23624)">
<path d="M67.2653 37.2007C65.6827 37.2418 64.0585 37.2828 62.4759 37.2418C61.8929 37.2418 61.643 37.4471 61.643 38.0221C61.643 38.6792 61.643 39.3363 61.643 40.0345C60.935 39.3774 60.352 38.8024 59.6856 38.2274C58.6861 37.406 57.4784 36.8311 56.1873 36.6668C55.1462 36.5436 54.0633 36.5436 53.0222 36.6668C52.106 36.7489 51.1481 36.8721 50.3152 37.2418C48.2745 38.1453 46.6919 39.5828 45.6924 41.5952C45.0677 42.8273 44.6929 44.1415 44.5263 45.5379C44.1515 48.9057 44.2764 52.1913 46.0256 55.2305C46.7752 56.5037 47.7331 57.6125 48.9825 58.475C50.6483 59.625 52.5224 60.0768 54.5215 59.9125C55.4793 59.8303 56.4788 59.8303 57.3951 59.5839C58.811 59.1732 60.0604 58.3518 61.0183 57.2018C61.1016 57.0786 61.3098 56.9965 61.4764 56.9144C61.5181 57.0376 61.5597 57.0786 61.5597 57.1197C61.5597 57.5304 61.5597 57.9411 61.5597 58.3107C61.5597 58.9679 61.7263 59.1321 62.3926 59.1321C64.0169 59.1321 65.6827 59.1321 67.3069 59.1321C67.8483 59.1321 68.0982 58.9679 68.0982 58.3518C68.0982 51.5342 68.0982 44.7165 68.0982 37.8989C68.0566 37.3239 67.89 37.2007 67.2653 37.2007ZM61.1432 51.6163C60.6018 52.7663 59.6023 53.5055 58.3946 53.8752C57.8115 54.0394 57.2285 54.0805 56.6038 54.2037C54.1883 54.2037 52.5224 53.0127 51.8561 51.452C51.1897 49.8914 51.0231 48.2486 51.3563 46.6058C51.5646 45.5379 51.8977 44.4701 52.7307 43.6487C54.0633 42.2934 55.6876 41.9648 57.52 42.2113C58.5612 42.3345 59.3108 42.7862 60.1021 43.4023C61.1432 44.2237 61.4764 45.3736 61.7679 46.5647C62.1011 48.2896 61.8929 50.0146 61.1432 51.6163ZM100.916 16.7888C101.707 17.1995 102.54 17.5281 103.623 17.487C103.123 17.0763 102.706 16.8299 102.373 16.5014C101.998 16.1317 102.04 15.9674 102.582 15.8032C102.915 15.6799 103.29 15.5978 103.581 15.3925C105.872 14.1193 106.788 11.0801 105.622 8.7391C104.289 5.9874 101.124 5.166 98.7084 6.93201C96.9593 8.20519 96.3346 10.8747 97.1675 13.0925C97.8338 14.8996 99.2498 15.9674 100.916 16.7888ZM98.7501 10.1766C99.1249 8.90338 100.458 7.99983 101.915 8.16412C101.707 8.45161 101.457 8.61589 101.374 8.86231C101.124 9.39622 100.749 9.9712 100.707 10.5462C100.624 11.6961 101.457 12.4765 102.665 12.5997C103.04 12.6408 103.414 12.6408 103.831 12.6818C103.165 13.6675 101.457 14.0371 100.291 13.5032C99.0832 13.0104 98.3752 11.4497 98.7501 10.1766ZM179.961 33.3401H178.836V33.0115H181.543V33.3401H180.419V36.1739H179.961V33.3401ZM42.9437 52.3966C42.9437 54.2448 42.9854 56.0519 42.9437 57.9C42.9437 58.5572 42.319 59.0089 41.4028 59.2553C40.6532 59.4196 39.9035 59.7071 39.1539 59.8714C38.4875 59.9946 37.7796 59.9946 37.0716 59.9946C36.4885 59.9946 35.9055 59.9946 35.3641 59.9946C34.1563 59.9125 33.0318 59.5839 31.949 59.1732C29.8667 58.3518 28.2425 57.0376 26.9931 55.2305C25.8686 53.5877 25.2023 51.7806 25.0774 49.7682C24.9524 48.0021 24.9108 46.195 25.4938 44.5112C26.3684 42.0059 27.826 39.8703 30.1999 38.4328C31.366 37.6935 32.657 37.2418 33.9897 36.9543C35.7389 36.5436 37.5297 36.6668 39.2788 36.79C40.1951 36.8721 41.0696 37.365 42.0275 37.5703C43.027 37.7757 43.027 38.4328 42.9854 39.2131C42.9437 40.7327 42.9854 42.2523 42.9437 43.7719C42.9437 44.0183 42.8604 44.2648 42.7771 44.5933C42.0691 44.1415 41.4861 43.6898 40.903 43.3612C39.4038 42.5809 37.8212 42.2934 36.1553 42.7862C35.6556 42.9094 35.1558 43.0737 34.6977 43.2791C32.8653 44.1415 32.0323 45.6611 31.949 47.5914C31.8657 48.8235 31.949 50.0556 32.5737 51.1645C33.2401 52.3145 34.198 53.2591 35.4473 53.6287C36.6551 53.9984 37.9045 54.0805 39.1955 53.793C40.4033 53.5466 41.3612 52.9305 42.2357 52.1502C42.3607 52.0681 42.5689 51.9859 42.6938 52.027C42.8188 52.027 42.9437 52.2324 42.9437 52.3966ZM79.4677 42.5398C79.4677 42.5398 79.4677 53.3413 79.4677 58.3518C79.4677 59.1732 79.4261 59.2143 78.5931 59.2143C76.8856 59.2143 75.1781 59.2143 73.5123 59.2143C73.0125 59.2143 72.8043 59.0089 72.8043 58.5161C72.8043 53.6698 72.8043 48.8235 72.8459 43.9773C72.8459 42.4987 72.8876 42.4987 71.3883 42.4987C70.014 42.4987 69.9723 42.4987 69.9307 41.1434C69.889 40.0756 69.9723 38.9667 69.9723 37.8989C69.9723 37.3239 70.3055 37.1596 70.8469 37.2007C71.4716 37.2418 72.0546 37.2007 72.8043 37.2007C72.8043 35.2704 72.7626 33.5044 72.8043 31.6973C72.8876 29.767 73.2207 27.9188 74.6784 26.4403C75.4697 25.6189 76.4692 25.085 77.5936 24.7975C79.0513 24.3868 80.5505 24.2225 82.0498 24.3047C82.7994 24.3457 83.5491 24.5511 84.2987 24.7154C84.5069 24.7564 84.7568 25.085 84.7568 25.2904C84.7985 26.6867 84.7985 28.0831 84.7568 29.4795C84.7568 30.0545 84.382 30.0545 83.674 29.8081C82.6745 29.4795 81.6333 29.4384 80.6338 30.0134C80.0924 30.3009 79.8009 30.7527 79.7176 31.3277C79.5927 32.3955 79.5094 33.4633 79.4677 34.4901C79.4261 35.3525 79.4677 36.215 79.4677 37.2007C80.6755 37.2007 81.8416 37.2007 83.0493 37.2007V42.5398H79.4677ZM130.526 37.94C130.568 38.9256 130.568 39.9113 130.568 40.897C130.568 46.5647 130.568 52.2324 130.526 57.9C130.526 58.1054 130.485 58.3518 130.485 58.5572C130.485 59.05 130.193 59.1732 129.777 59.1732C127.986 59.1732 126.237 59.1732 124.446 59.1732C123.988 59.1732 123.821 58.9268 123.821 58.475C123.821 55.0251 123.821 51.6163 123.821 48.1664C123.821 44.8397 123.821 41.5541 123.821 38.2274C123.821 37.365 123.946 37.1186 124.946 37.1186C126.528 37.1186 128.111 37.1596 129.652 37.1186C130.276 37.1596 130.526 37.406 130.526 37.94ZM179.877 39.1721C178.67 38.1042 177.212 37.365 175.588 36.9543C174.672 36.7079 173.672 36.6257 172.714 36.6257C171.34 36.6257 169.882 36.7079 168.55 36.9543C167.3 37.2007 166.176 37.8578 165.093 38.556C163.261 39.7881 161.969 41.4309 161.137 43.3612C160.387 45.0451 160.179 46.9343 160.22 48.7825C160.304 50.7128 160.637 52.602 161.553 54.368C162.303 55.8055 163.344 56.9554 164.676 57.9411C166.259 59.1321 168.092 59.7482 170.049 59.8714C171.631 59.9946 173.214 60.1589 174.797 59.666C175.713 59.3786 176.712 59.2143 177.587 58.8446C179.461 57.9822 180.96 56.6679 182.085 54.9019C182.501 54.2859 182.376 53.9162 181.668 53.6287C180.377 53.0127 179.045 52.4377 177.753 51.7806C177.337 51.5752 177.046 51.6163 176.754 51.9449C176.421 52.3556 176.088 52.7663 175.671 53.0948C174.588 53.8752 173.381 54.2037 172.048 54.0805C171.298 53.9984 170.507 54.0394 169.841 53.793C168.133 53.1359 167.3 51.7806 167.009 49.9735C167.3 49.9735 167.55 49.9735 167.8 49.9735C172.714 49.9735 177.629 49.9735 182.543 49.9735C183.334 49.9735 183.501 49.8914 183.459 49.111C183.417 47.6736 183.376 46.2361 183.126 44.8397C182.751 42.622 181.627 40.6917 179.877 39.1721ZM176.004 45.8665C174.963 45.8254 173.922 45.8665 172.881 45.8665V45.8254C171.173 45.8254 169.466 45.8254 167.717 45.8254C167.259 45.8254 167.134 45.579 167.259 45.2094C167.717 43.9773 168.383 42.9094 169.716 42.4577C170.84 42.047 172.006 41.8827 173.214 42.1702C174.38 42.4577 175.338 42.9094 175.963 43.9773C176.213 44.388 176.379 44.8397 176.504 45.2915C176.671 45.6611 176.462 45.8665 176.004 45.8665ZM157.597 45.4969C157.638 49.7271 157.597 53.9162 157.597 58.1465C157.597 59.0911 157.472 59.2143 156.555 59.2143C154.89 59.2143 153.224 59.2143 151.599 59.2143C151.058 59.2143 150.85 59.0089 150.85 58.5161C150.85 55.3537 150.85 52.1913 150.85 49.0289C150.85 47.345 150.891 45.6611 150.35 44.0594C149.975 42.9094 149.101 42.2113 147.893 42.047C146.144 41.8416 144.561 42.1702 143.229 43.4844C142.271 44.429 141.813 45.6201 141.771 46.9343C141.729 50.7128 141.688 54.4912 141.688 58.2697C141.688 59.0089 141.438 59.2553 140.688 59.2553C139.064 59.2143 137.398 59.2143 135.774 59.2553C135.191 59.2553 134.941 59.0911 134.941 58.475C134.941 52.4377 134.941 46.3593 134.899 40.322C134.899 39.6649 134.899 39.0078 134.858 38.3096C134.816 37.6114 134.983 37.2828 135.732 37.2828C137.481 37.2418 139.189 37.2828 140.938 37.3239C141.438 37.3239 141.563 37.6935 141.521 38.1453C141.521 38.8024 141.521 39.4185 141.521 40.2399C141.937 39.8703 142.271 39.6238 142.562 39.3363C143.77 38.1453 145.186 37.2418 146.893 36.9953C148.393 36.79 149.934 36.6668 151.433 36.79C153.182 36.9543 154.723 37.7757 155.847 39.0899C156.68 40.0345 157.138 41.2256 157.305 42.4987C157.513 43.4434 157.597 44.4701 157.597 45.4969ZM185 33.0115V36.1739H184.584V33.6276L183.709 35.9686H183.251L182.376 33.5865V36.1739H182.001V33.0115H182.626L183.501 35.4347L184.417 33.0115H185ZM135.649 34.1615C134.358 34.1204 133.067 34.1204 131.776 34.1615C131.151 34.1615 131.026 33.9562 131.026 33.3812C131.068 30.3831 131.109 27.3849 131.026 24.4279C130.984 23.2369 130.735 22.0047 130.443 20.8137C130.276 20.1155 129.61 19.7459 128.902 19.5405C126.528 18.9245 124.363 20.3209 124.113 22.8262C123.905 25.0439 123.905 27.2617 123.863 29.4795C123.821 30.8348 123.863 32.1901 123.863 33.5455C123.863 34.0383 123.696 34.2026 123.197 34.2026C121.906 34.1615 120.573 34.1204 119.282 34.1615C118.657 34.1615 118.491 33.9972 118.491 33.4222C118.532 30.8348 118.532 28.2063 118.491 25.6189C118.491 24.469 118.407 23.319 118.282 22.169C118.157 20.7316 117.449 19.8691 116.325 19.5816C114.867 19.212 113.243 19.787 112.493 20.8959C111.702 22.0458 111.452 23.3601 111.411 24.6743C111.327 27.5903 111.327 30.5063 111.369 33.3812C111.369 33.9562 111.244 34.1615 110.619 34.1204C109.328 34.0794 108.037 34.1204 106.746 34.1615C106.246 34.1615 105.997 34.0383 105.997 33.5044C105.997 27.8367 106.038 22.2101 105.997 16.5424C105.997 15.9674 106.205 15.8032 106.788 15.8032C108.079 15.8442 109.37 15.8442 110.661 15.8032C111.202 15.8032 111.411 15.9674 111.369 16.5014C111.327 17.1585 111.369 17.8156 111.369 18.4727C111.452 18.4727 111.494 18.5138 111.577 18.5138C111.91 18.1442 112.202 17.7745 112.535 17.446C114.992 14.8175 118.782 14.7353 121.156 15.9674C122.114 16.4603 122.822 17.2406 123.28 18.2263C123.571 18.8834 123.738 18.9245 124.154 18.3495C125.321 16.8299 126.737 15.7621 128.652 15.3925C132.442 14.6943 135.732 16.1728 136.232 20.0745C136.315 20.6905 136.357 21.3066 136.357 21.9637C136.357 25.7832 136.357 29.6438 136.399 33.4633C136.399 33.9972 136.274 34.2026 135.649 34.1615ZM115.2 37.8167C113.743 37.0775 112.202 36.7079 110.536 36.6257C108.121 36.5025 105.788 36.7489 103.623 37.8989C100.749 39.4185 98.875 41.7595 98.0837 44.7987C97.2508 47.8379 97.4174 50.877 98.7084 53.8341C99.2498 55.1073 100.083 56.134 101.041 57.1197C101.998 58.0643 103.123 58.6804 104.331 59.1732C105.538 59.666 106.788 59.9946 108.121 59.9535C108.829 59.9125 109.537 59.9125 110.286 59.9535C111.702 60.0357 113.076 59.6661 114.326 59.1321C116.575 58.2697 118.366 56.7501 119.615 54.6966C119.865 54.2859 119.823 54.0805 119.365 53.8341C117.949 53.1359 116.491 52.4377 115.075 51.7395C114.784 51.5752 114.492 51.6163 114.243 51.9449C113.618 52.7663 112.827 53.5055 111.869 53.793C110.161 54.2859 108.37 54.4091 106.746 53.5877C105.33 52.8895 104.747 51.5752 104.414 49.9735C104.789 49.9735 104.997 49.9735 105.205 49.9735C110.12 49.9735 115.034 49.9735 119.948 49.9735C120.49 49.9735 120.781 49.8092 120.823 49.2342C121.031 46.8522 120.739 44.5522 119.698 42.3345C118.74 40.3631 117.241 38.8435 115.2 37.8167ZM113.368 45.7843C111.286 45.7843 109.203 45.8254 107.121 45.8254C106.33 45.8254 105.538 45.8254 104.664 45.8254C104.581 45.004 105.039 44.3469 105.455 43.7308C106.455 42.2523 109.078 41.7595 110.578 42.1291C111.286 42.2934 111.869 42.5398 112.493 42.9094C113.41 43.4434 113.701 44.3469 113.993 45.2504C114.076 45.6611 113.743 45.7843 113.368 45.7843ZM97.0842 41.7595C97.0842 42.3345 96.9176 42.5398 96.2929 42.5398C95.4183 42.4987 94.5438 42.5398 93.6692 42.5398C93.2111 42.5398 93.0028 42.7041 93.0028 43.1559C93.0028 48.0843 93.0445 53.0538 93.0445 57.9822C93.0445 58.1875 93.0861 58.475 93.0028 58.6393C92.8779 58.8446 92.628 59.1732 92.4198 59.1732C90.5873 59.2143 88.7549 59.2143 86.9641 59.1732C86.506 59.1732 86.2145 58.9268 86.2561 58.3929C86.2561 53.3413 86.2561 42.4987 86.2561 42.4987H83.7573V37.1596C84.5902 37.1596 85.4232 37.1596 86.2977 37.1596C86.2977 35.9275 86.2561 34.7365 86.2977 33.5455C86.381 32.1491 86.4643 30.7116 86.6726 29.3563C87.0057 27.3028 88.2551 25.8653 90.1709 25.085C90.9622 24.7564 91.8367 24.6332 92.7113 24.51C93.7525 24.3868 94.7936 24.2636 95.7932 24.3047C96.5011 24.3047 97.1675 24.51 97.8338 24.7154C98.0421 24.7975 98.2503 25.1671 98.2919 25.3725C98.3336 26.7278 98.3336 28.1242 98.3336 29.4795C98.3336 29.6849 98.2087 29.8491 98.1254 30.0956C97.1258 29.4384 96.0847 29.4384 95.0019 29.5616C94.2106 29.6849 93.2527 30.6295 93.2111 31.4509C93.1278 33.1758 93.1278 34.8597 93.0445 36.5846C93.0445 37.0364 93.2944 37.1596 93.6275 37.1596C94.5021 37.1596 95.335 37.1596 96.2096 37.1596C96.876 37.1596 97.1258 37.3239 97.1258 37.94C97.0842 39.2542 97.0842 40.5274 97.0842 41.7595Z" fill="black"/>
</g>
<defs>
<clipPath id="clip0_1317_23624">
<rect width="210" height="89.9999" fill="white"/>
</clipPath>
</defs>
</svg>
