<svg width="210" height="90" viewBox="0 0 210 90" fill="none" xmlns="http://www.w3.org/2000/svg">
<g clip-path="url(#clip0_1317_23628)">
<path d="M61.2304 53.559C61.2304 53.559 61.2805 53.0512 61.2805 52.7465C61.2805 44.5707 61.2805 36.344 61.2805 28.1681C61.2805 27.2032 61.2805 27.2032 62.2833 27.2032C63.1357 27.2032 63.988 27.2032 64.8905 27.2032C65.2916 27.2032 65.4922 27.3556 65.4922 27.7619C65.4922 27.8634 65.4922 28.0158 65.4922 28.1173C65.4922 39.137 65.4922 50.1059 65.4922 61.1255C65.4922 61.4302 65.5423 61.9381 65.2916 61.9888C65.0911 61.9888 64.69 62.0904 64.339 61.6841C62.2833 59.7544 60.2778 57.8247 58.2722 55.895C56.5174 54.2192 54.7625 52.5434 53.0077 50.8676C52.0049 49.9028 50.952 48.9379 49.9493 47.9223C47.8936 45.9418 45.888 43.9613 43.8324 41.9808C41.8268 40.0511 39.8213 38.0706 37.8158 36.1409C37.6653 35.9885 37.4648 35.9377 37.3144 35.8362C37.2642 36.0393 37.164 36.2424 37.164 36.4456C37.164 44.5707 37.164 52.6958 37.164 60.7701C37.164 60.9732 37.164 61.1763 37.164 61.3287C37.164 61.7349 37.0135 61.9381 36.5623 61.9381C35.6097 61.9381 34.6069 61.9381 33.6543 61.9381C33.203 61.9381 33.0025 61.7349 33.0025 61.2779C33.0025 61.0748 33.0025 60.8716 33.0025 60.7193C33.0025 49.8012 33.0025 38.8831 33.0025 27.965C33.0025 27.6095 32.9523 27.254 33.3033 27.254C33.6041 27.254 34.0554 27.3556 34.2559 27.5587C35.2086 28.3712 36.0609 29.2853 36.9634 30.1486C39.9717 33.0432 42.98 35.9377 45.9883 38.8831C48.3448 41.1683 50.7013 43.5042 53.0578 45.7894C55.5146 48.1254 57.9714 50.4614 60.4282 52.7973C60.5285 53.102 61.2304 53.559 61.2304 53.559ZM126.511 30.6564C127.062 30.6564 127.664 30.6564 128.215 30.6564C131.374 30.6564 134.533 30.6564 137.691 30.6564C138.444 30.6564 138.444 30.6056 138.444 29.8439C138.444 29.2853 138.444 28.6759 138.444 28.1173C138.444 27.4064 138.393 27.3048 137.641 27.3048C130.271 27.3048 122.85 27.3048 115.48 27.3048C114.528 27.3048 113.575 27.3556 112.622 27.7111C111.269 28.2189 110.115 29.0314 109.163 30.0978C107.959 31.4181 107.358 33.0939 107.057 34.8205C106.756 36.4456 107.157 38.0198 107.759 39.4925C108.411 41.1175 109.514 42.387 111.018 43.3011C112.321 44.1136 113.725 44.5199 115.28 44.5199C120.093 44.4691 124.906 44.5199 129.669 44.4691C130.772 44.4691 131.875 44.6722 132.878 45.18C134.382 45.9418 135.536 47.059 136.137 48.6332C136.639 49.9535 136.889 51.3246 136.588 52.7973C136.237 54.5239 135.485 55.9458 134.182 57.063C132.928 58.0786 131.474 58.5865 129.92 58.5865C125.558 58.6372 121.196 58.5865 116.834 58.5865C114.327 58.5865 111.87 58.5865 109.363 58.5865C108.812 58.5865 108.611 58.7896 108.611 59.2974C108.661 59.9068 108.611 60.5162 108.611 61.0748C108.611 61.9381 108.611 61.9381 109.464 61.9381C116.333 61.9381 123.252 61.9381 130.121 61.9381C131.625 61.9381 133.029 61.5826 134.332 60.9224C135.886 60.1607 137.14 59.0435 138.143 57.6216C139.095 56.3013 139.697 54.7778 139.847 53.1528C140.048 51.2739 139.998 49.3949 139.246 47.5668C138.845 46.5511 138.343 45.6371 137.691 44.8246C135.536 42.1839 132.678 40.9144 129.268 40.9144C124.355 40.9144 119.391 40.9144 114.477 40.9144C114.227 40.9144 113.926 40.9144 113.675 40.8128C110.617 39.4925 109.714 37.2581 110.416 34.2619C110.968 31.8752 112.923 30.6564 115.28 30.5549C119.19 30.5549 122.85 30.6564 126.511 30.6564ZM177 43.8089C177 38.4768 177 33.0939 177 27.7619C177 27.2032 176.85 27.0001 176.298 27.0509C175.546 27.1017 174.794 27.0509 174.042 27.0509C173.24 27.0509 173.24 27.0509 173.24 27.8634C173.24 32.4338 173.24 36.9534 173.24 41.5237C173.24 42.5394 173.24 42.5394 172.237 42.5394C164.666 42.5394 157.095 42.5394 149.524 42.5394C148.371 42.5394 148.371 42.5394 148.371 41.4222C148.371 36.8518 148.371 32.3322 148.371 27.7619C148.371 27.2032 148.221 27.0509 147.669 27.0509C146.917 27.1017 146.165 27.0509 145.413 27.0509C144.51 27.0509 144.51 27.0509 144.51 28.0158C144.51 38.9846 144.51 49.9535 144.51 60.9732C144.51 61.1255 144.51 61.2779 144.51 61.4302C144.51 61.8365 144.661 61.9888 145.062 61.9888C145.914 61.9888 146.767 61.9888 147.569 61.9888C148.321 61.9888 148.321 61.9381 148.321 61.1763C148.321 56.5552 148.321 51.934 148.321 47.3129C148.321 46.7543 148.421 46.5511 149.023 46.5511C156.844 46.5511 164.616 46.5511 172.437 46.5511C173.189 46.5511 173.189 46.5511 173.189 47.3129C173.189 51.934 173.189 56.5552 173.189 61.1255C173.189 61.8365 173.24 61.8873 173.992 61.8873C174.694 61.8873 175.396 61.8873 176.097 61.8873C176.95 61.8873 176.95 61.8873 176.95 61.024C176.95 55.4888 176.95 49.9535 176.95 44.4183C177 44.266 177 44.0628 177 43.8089ZM103.096 37.0042C103.096 33.9065 103.096 30.8595 103.096 27.7619C103.096 27.2032 102.895 27.0001 102.344 27.0001C101.792 27.0509 101.241 27.0001 100.689 27.0001C99.7367 27.0001 99.7367 27.0001 99.7367 28.0158C99.6364 33.8049 99.9874 39.5432 99.5361 45.3324C99.4359 46.7035 99.135 47.973 98.6838 49.1918C97.9818 51.02 96.9791 52.645 95.6253 54.1176C93.1184 56.9107 89.9597 58.3325 86.2495 58.231C84.8456 58.231 83.4417 57.9263 82.088 57.3677C80.283 56.606 78.7788 55.5395 77.4752 54.1684C76.0212 52.5942 74.9182 50.766 74.2664 48.684C73.8151 47.1605 73.5143 45.6879 73.3639 44.1136C73.3138 43.4027 73.3138 42.6409 73.3138 41.93C73.3138 37.2073 73.3138 32.4846 73.3138 27.7619C73.3138 27.254 73.1633 27.0509 72.6118 27.0509C71.96 27.1017 71.2581 27.0509 70.6063 27.0509C70.1049 27.0509 69.9545 27.254 69.9545 27.7619C69.9545 33.0432 69.9545 38.3245 69.9545 43.6058C69.9545 44.8246 70.155 47.4144 70.2052 47.4652C70.506 48.8363 71.0074 50.1059 71.5589 51.3754C72.1104 52.645 72.7622 53.813 73.5143 54.9809C74.4669 56.4536 75.7204 57.6724 77.0741 58.688C77.9766 59.3482 78.9293 59.9576 79.932 60.4654C80.7342 60.8716 81.6869 61.1255 82.5392 61.3287C83.3916 61.5826 84.2941 61.7857 85.1464 61.8873C87.4026 62.0904 89.6087 61.7349 91.7647 60.9224C93.5195 60.2623 95.0738 59.2974 96.5278 58.1294C98.5334 56.5044 99.9372 54.4731 101.04 52.1879C101.642 50.9692 102.043 49.5981 102.444 48.2777C102.645 47.5668 102.845 46.8558 102.845 46.1449C102.946 43.098 102.996 40.0511 103.046 37.0042C103.146 37.0042 103.096 37.0042 103.096 37.0042Z" fill="black"/>
</g>
<defs>
<clipPath id="clip0_1317_23628">
<rect width="210" height="89.9999" fill="white"/>
</clipPath>
</defs>
</svg>
