<svg width="210" height="90" viewBox="0 0 210 90" fill="none" xmlns="http://www.w3.org/2000/svg">
<g clip-path="url(#clip0_1317_23636)">
<path d="M7.03363 30.0566C7.03363 30.0234 7.06726 30.0234 7.06726 29.9902C7.26905 28.9951 8.00892 28.398 9.28689 28.3317C9.38778 28.3317 9.52231 28.3317 9.6232 28.3317C15.1723 28.3317 20.6877 28.3317 26.2368 28.3317C26.3713 28.3317 26.4722 28.3317 26.6404 28.3317C26.6404 28.4976 26.674 28.6302 26.674 28.7298C26.674 30.8859 26.674 33.042 26.674 35.198C26.674 35.3639 26.6404 35.5629 26.6067 35.7288C26.1023 37.2215 25.5978 38.681 25.0933 40.1737C25.0261 40.3727 24.9588 40.5054 24.6898 40.5054C21.5285 40.4722 18.3672 40.4722 15.2059 40.439C15.1723 40.439 15.1386 40.439 15.0714 40.439C15.0714 38.9132 15.0714 37.3873 15.0714 35.8283C17.3583 35.8283 19.6452 35.8283 21.9657 35.8283C21.9657 34.8663 21.9657 33.9376 21.9657 32.9424C21.7975 32.9424 21.663 32.9424 21.5285 32.9424C18.6362 32.9424 15.744 32.9424 12.8181 32.9424C11.9101 32.9424 11.7756 33.1083 11.7756 33.9707C11.7756 36.5249 11.7756 39.0459 11.7756 41.6C11.7756 42.3961 12.0446 42.6615 12.8517 42.6615C15.0714 42.6615 17.3246 42.6615 19.5443 42.6615C19.7124 42.6615 19.9478 42.7278 20.0824 42.8273C21.0913 43.5571 22.0666 44.2868 23.0755 45.0166C23.2773 45.1824 23.3109 45.282 23.2437 45.5141C23.0755 46.0117 22.941 46.5424 22.7728 47.04C22.7392 47.239 22.6383 47.2722 22.4365 47.2722C18.0981 47.2722 13.7598 47.2722 9.42141 47.2722C8.24434 47.2722 7.47083 46.642 7.13452 45.5141C7.10089 45.4146 7.06726 45.282 7 45.1824C7.03363 40.1405 7.03363 35.0985 7.03363 30.0566ZM7.03363 59.8439C7.06726 59.8771 7.10089 59.9102 7.10089 59.9434C7.30268 61.1376 8.21071 61.9668 9.79135 61.9668C15.2732 61.9668 20.755 61.9668 26.2368 61.9668C26.3713 61.9668 26.5058 61.9668 26.6404 61.9668C26.6404 57.4888 26.6404 53.1102 26.6404 48.6322C26.5395 48.6985 26.4722 48.7317 26.4049 48.7649C24.9924 49.76 23.58 50.7883 22.2011 51.7834C22.0666 51.8829 21.9657 52.082 21.9657 52.2478C21.9321 53.7737 21.9657 55.2995 21.9657 56.8254C21.9657 56.958 21.9657 57.0907 21.9657 57.2566C21.7975 57.2566 21.6966 57.2898 21.5957 57.2898C18.6026 57.2898 15.6095 57.2898 12.65 57.2898C12.5154 57.2898 12.3809 57.2898 12.2464 57.2566C11.9774 57.1902 11.7756 57.0244 11.7756 56.7259C11.7756 55.9629 11.7756 55.2 11.7756 54.4039C14.1633 54.4039 16.4839 54.4039 18.838 54.4039C18.838 54.238 18.8717 54.1385 18.8717 54.0059C18.8717 52.7454 18.8717 51.4517 18.8717 50.1912C18.8717 49.8595 18.7708 49.76 18.4345 49.76C14.7687 49.76 11.1366 49.76 7.47083 49.76C7.33631 49.76 7.16815 49.7268 7.03363 49.7268C7.03363 53.1434 7.03363 56.4937 7.03363 59.8439ZM33.3329 32.9424C36.2251 32.9424 39.1174 32.9424 42.0432 32.9424C42.1441 32.9424 42.245 32.9424 42.3459 32.9424C42.884 32.9756 43.0858 33.2078 43.0858 33.7385C43.0858 36.359 43.0858 38.9463 43.0858 41.5668C43.0858 42.3961 42.8504 42.6615 41.976 42.6615C39.7563 42.6615 37.5031 42.6615 35.2835 42.6615C35.1153 42.6615 34.9472 42.6946 34.8126 42.7941C33.7701 43.5571 32.7275 44.32 31.7186 45.1161C31.6513 45.1824 31.5841 45.3483 31.6177 45.4478C31.7522 45.9785 31.954 46.4761 32.0885 46.9737C32.1558 47.239 32.2903 47.3054 32.5594 47.3054C35.8552 47.3054 39.1174 47.3054 42.4132 47.3054C43.3885 47.3054 44.3974 47.3054 45.3727 47.3054C46.617 47.3054 47.4242 46.6751 47.7268 45.481C47.7941 45.2156 47.8277 44.9171 47.8277 44.6185C47.8277 41.799 47.8277 39.0127 47.8277 36.1932C47.8277 34.3024 47.8277 32.4117 47.8277 30.521C47.8277 29.3932 47.2224 28.6302 46.1798 28.398C45.9108 28.3317 45.6081 28.2985 45.3391 28.2985C39.7563 28.2985 34.1736 28.2985 28.5909 28.2985C28.2883 28.2985 28.1874 28.398 28.1874 28.6966C28.1874 30.8859 28.1874 33.042 28.1874 35.2312C28.1874 35.4302 28.221 35.6293 28.2883 35.7951C28.7591 37.2546 29.2972 38.681 29.768 40.1405C29.8689 40.439 30.0034 40.5054 30.3061 40.5054C33.3665 40.4722 36.4269 40.4722 39.4873 40.439C39.5882 40.439 39.6891 40.439 39.8236 40.4059C39.8236 38.88 39.8236 37.3541 39.8236 35.7951C37.5367 35.7951 35.2498 35.7951 32.9293 35.7951C32.9293 34.8332 32.9293 33.9044 32.9293 32.9424C33.0638 32.9424 33.1984 32.9424 33.3329 32.9424ZM28.5909 61.9668C34.1064 61.9668 39.5882 61.9668 45.1036 61.9668C46.7852 61.9668 47.7941 60.9717 47.7941 59.3132C47.7941 56.2946 47.7941 53.2761 47.7941 50.2576C47.7941 50.1249 47.7941 49.9922 47.7605 49.8595C43.8257 49.8595 39.8909 49.8595 35.9897 49.8595C35.9897 51.4185 35.9897 52.9112 35.9897 54.4702C38.3439 54.4702 40.698 54.4702 43.0522 54.4702C43.0522 55.2663 43.0858 56.0624 43.0185 56.8254C43.0185 56.9912 42.7495 57.1902 42.5477 57.2898C42.4132 57.3561 42.2114 57.3229 42.0432 57.3229C39.1174 57.3229 36.1915 57.3229 33.2656 57.3229C33.1311 57.3229 32.9966 57.3229 32.8284 57.3229C32.8284 57.1571 32.8284 57.0244 32.8284 56.8917C32.8284 55.3659 32.8284 53.84 32.8284 52.3473C32.8284 52.082 32.7612 51.9161 32.5594 51.7834C31.1805 50.8215 29.8353 49.8263 28.4564 48.8644C28.3555 48.798 28.2883 48.7649 28.1537 48.6654C28.1537 53.1102 28.1537 57.522 28.1537 62C28.3219 61.9668 28.4564 61.9668 28.5909 61.9668ZM124.506 28.0995C122.051 28.5971 120.605 30.4878 121.143 33.0088C121.412 34.2361 122.152 35.2312 123.093 36.0273C123.867 36.7239 124.708 37.3541 125.515 38.0176C126.187 38.5483 126.793 39.1454 127.163 39.9746C127.869 41.6 127.028 43.2254 125.313 43.5902C124.64 43.7229 124.001 43.6898 123.329 43.4907C122.017 43.0927 121.445 42.0976 121.244 40.8371C121.143 40.1737 121.479 39.5766 122.152 39.3112C122.69 39.079 123.194 39.2449 123.598 39.8088C123.665 39.8751 123.732 39.9083 123.8 39.9746C123.833 39.8751 123.968 39.7424 123.934 39.6761C123.766 39.2117 123.665 38.681 123.396 38.2498C122.858 37.4537 121.647 37.4537 121.109 38.2498C120.874 38.6146 120.706 39.0127 120.605 39.4439C120.302 40.7707 120.403 42.1307 120.571 43.4576C120.605 43.8888 120.806 44.0878 121.21 44.2205C122.589 44.7181 123.968 44.7844 125.414 44.6185C128.542 44.2537 130.391 41.5005 129.483 38.5483C129.147 37.4868 128.508 36.6576 127.667 35.9278C126.793 35.198 125.885 34.5346 125.01 33.7717C124.506 33.3405 123.968 32.8761 123.598 32.3454C122.69 31.0185 123.396 29.36 124.943 29.0283C125.347 28.9288 125.75 28.9288 126.154 28.962C127.297 28.9951 128.239 29.758 128.609 30.8195C128.676 31.0517 128.71 31.3171 128.743 31.5824C128.777 31.6488 128.844 31.7483 128.911 31.7815C128.979 31.7815 129.08 31.682 129.113 31.6156C129.147 31.5493 129.147 31.4166 129.147 31.3171C129.18 30.4878 129.181 29.6254 129.248 28.7961C129.281 28.4644 129.147 28.3317 128.844 28.2654C128.003 28.1659 126.658 28 126.322 28C125.986 28 125.078 28 124.506 28.0995ZM64.8785 28.1327C62.3226 28.6966 60.9773 30.6868 61.5827 33.1083C61.8854 34.3356 62.6253 35.2644 63.5333 36.0937C64.3068 36.7902 65.1139 37.3873 65.9211 38.0507C66.5937 38.5815 67.199 39.1785 67.5353 40.0078C68.208 41.6332 67.4008 43.2254 65.6857 43.6234C65.013 43.7893 64.3741 43.7561 63.7014 43.5571C62.2217 43.0927 61.6836 41.8985 61.5827 40.6712C61.5491 40.1073 62.0535 39.5102 62.6589 39.3444C63.1297 39.2117 63.6005 39.3776 63.9705 39.8751C64.0377 39.9415 64.1386 40.0078 64.2059 40.041C64.2395 39.9415 64.3404 39.8088 64.3068 39.7424C64.1723 39.278 64.0714 38.7805 63.8023 38.3493C63.2642 37.52 62.0535 37.52 61.4818 38.3493C61.2464 38.681 61.0782 39.1122 60.9773 39.5102C60.6747 40.8702 60.7756 42.1971 60.9437 43.5571C60.9773 43.9883 61.1791 44.1873 61.5491 44.32C62.9279 44.8507 64.3404 44.8839 65.7865 44.7181C68.9142 44.3532 70.7303 41.6 69.8559 38.681C69.5196 37.6195 68.8806 36.7571 68.0734 36.0605C67.199 35.3307 66.291 34.6673 65.4166 33.9044C64.8785 33.44 64.3404 32.9424 63.9705 32.3785C63.1297 31.0849 63.836 29.4595 65.3493 29.1278C65.7865 29.0283 66.2237 29.0283 66.6609 29.0615C67.8044 29.1278 68.8133 29.9902 69.0824 31.118C69.116 31.2839 69.116 31.4829 69.1832 31.6488C69.2169 31.7151 69.2841 31.7815 69.3514 31.8478C69.4187 31.7815 69.5196 31.7151 69.5868 31.6488C69.6204 31.5824 69.6204 31.4829 69.6204 31.4166C69.6541 30.5541 69.6541 29.7249 69.7213 28.8624C69.7213 28.5971 69.6541 28.4312 69.3514 28.398C68.477 28.2985 67.1654 28.0995 66.7618 28.0995C66.291 28 65.4502 28 64.8785 28.1327ZM150.872 44.1873C150.603 44.1541 150.334 44.1541 150.065 44.121C149.493 44.0546 149.258 43.922 149.224 43.358C149.157 42.0644 149.124 40.7707 149.09 39.4771C149.09 39.278 149.191 39.2449 149.359 39.2449C149.662 39.2449 149.964 39.278 150.267 39.2449C150.771 39.1785 151.04 39.4107 151.31 39.7756C152.419 41.2351 153.529 42.6946 154.706 44.0878C155.749 45.282 157.027 46.2771 158.507 46.9073C159.179 47.2059 159.885 47.4049 160.659 47.3054C160.793 47.2722 160.928 47.2059 161.062 47.1395C160.928 47.0732 160.793 47.04 160.659 46.9737C160.625 46.9405 160.558 46.9405 160.524 46.9405C159.684 46.8078 159.045 46.2771 158.439 45.7463C156.085 43.6566 154.37 41.0361 152.52 38.6146C153.025 38.0507 153.563 37.5532 154 36.9561C154.605 36.16 154.841 35.2312 154.639 34.2693C154.37 32.8429 153.26 31.9141 151.612 31.8478C149.594 31.7483 147.577 31.7815 145.559 31.7815C145.458 31.7815 145.323 31.8478 145.222 31.881C145.222 31.9141 145.222 31.9805 145.222 32.0137C145.458 32.0468 145.693 32.0468 145.929 32.08C146.668 32.1463 146.904 32.3785 146.904 33.0751C146.938 35.7288 146.938 38.3824 146.938 41.0361C146.938 41.799 146.87 42.562 146.803 43.3249C146.736 43.9551 146.568 44.0878 145.929 44.121C145.76 44.121 145.626 44.1873 145.458 44.1873C145.458 44.2205 145.458 44.2868 145.458 44.32C145.592 44.3532 145.693 44.4195 145.828 44.4195C147.341 44.4195 148.854 44.4195 150.368 44.4195C150.502 44.4195 150.637 44.3532 150.738 44.32C150.872 44.2868 150.872 44.2537 150.872 44.1873ZM152.688 34.8332C152.823 35.6293 152.789 36.3922 152.487 37.1551C152.117 38.0507 151.545 38.4156 150.57 38.4156C150.2 38.4156 149.796 38.3493 149.426 38.3161C149.191 38.2829 149.056 38.1502 149.056 37.918C149.056 36.2595 149.056 34.6341 149.056 32.9756C149.056 32.7434 149.157 32.6107 149.393 32.6107C149.561 32.6107 149.763 32.5776 149.931 32.5444C151.41 32.5112 152.453 33.4068 152.688 34.8332ZM104.865 44.1873C104.596 44.1541 104.327 44.1541 104.058 44.121C103.487 44.0546 103.251 43.922 103.218 43.358C103.15 42.0644 103.117 40.7707 103.083 39.4771C103.083 39.278 103.184 39.2449 103.352 39.2449C103.655 39.2449 103.957 39.278 104.26 39.2449C104.765 39.1785 105.034 39.4107 105.303 39.7756C106.412 41.2351 107.522 42.6946 108.699 44.0878C109.742 45.282 111.02 46.2771 112.5 46.9073C113.172 47.2059 113.879 47.4049 114.652 47.3054C114.787 47.2722 114.921 47.2059 115.056 47.1395C114.921 47.0732 114.787 47.04 114.652 46.9737C114.618 46.9405 114.551 46.9405 114.517 46.9405C113.677 46.8078 113.038 46.2771 112.432 45.7463C110.078 43.6566 108.363 41.0361 106.513 38.6146C107.018 38.0507 107.556 37.5532 107.993 36.9561C108.598 36.16 108.834 35.2312 108.632 34.2693C108.363 32.8429 107.253 31.9141 105.605 31.8478C103.588 31.7483 101.57 31.7815 99.5518 31.7815C99.4509 31.7815 99.3164 31.8478 99.2155 31.881C99.2155 31.9141 99.2155 31.9805 99.2155 32.0137C99.4509 32.0468 99.6863 32.0468 99.9217 32.08C100.662 32.1463 100.897 32.3785 100.897 33.0751C100.931 35.7288 100.931 38.3824 100.931 41.0361C100.931 41.799 100.863 42.562 100.796 43.3249C100.729 43.9551 100.561 44.0878 99.9217 44.121C99.7536 44.121 99.6191 44.1873 99.4509 44.1873C99.4509 44.2205 99.4509 44.2868 99.4509 44.32C99.5854 44.3532 99.6863 44.4195 99.8209 44.4195C101.334 44.4195 102.848 44.4195 104.361 44.4195C104.496 44.4195 104.63 44.3532 104.731 44.32C104.899 44.2868 104.899 44.2537 104.865 44.1873ZM106.715 34.8332C106.85 35.6293 106.816 36.3922 106.513 37.1551C106.143 38.0507 105.572 38.4156 104.596 38.4156C104.226 38.4156 103.823 38.3493 103.453 38.3161C103.218 38.2829 103.083 38.1502 103.083 37.918C103.083 36.2595 103.083 34.6341 103.083 32.9756C103.083 32.7434 103.184 32.6107 103.419 32.6107C103.588 32.6107 103.789 32.5776 103.957 32.5444C105.404 32.5112 106.48 33.4068 106.715 34.8332ZM191.128 38.3824C192.07 39.5434 192.978 40.7044 193.92 41.8654C195.399 43.6234 197.115 45.1161 199.301 45.9785C200.41 46.4098 201.554 46.6751 202.765 46.5424C202.865 46.5424 202.933 46.4429 203 46.3766C202.933 46.3434 202.865 46.2439 202.765 46.2439C201.957 46.2439 201.285 45.9122 200.612 45.5141C199.536 44.8839 198.561 44.0878 197.653 43.2254C195.736 41.401 194.121 39.3112 192.44 37.2546C192.406 37.2215 192.373 37.1551 192.406 37.1883C193.752 35.8283 195.03 34.5346 196.341 33.241C196.879 32.7102 197.518 32.3122 198.258 32.1463C198.46 32.1132 198.695 32.08 198.931 32.0468C198.998 32.0468 199.065 31.9473 199.099 31.9141C199.032 31.8478 198.998 31.7815 198.931 31.7815C198.83 31.7483 198.695 31.7815 198.594 31.7815C197.485 31.7815 196.375 31.7815 195.265 31.7815C195.198 31.7815 195.097 31.7483 195.03 31.7815C194.962 31.8146 194.861 31.8478 194.794 31.9141C194.861 31.9805 194.895 32.08 194.962 32.1132C195.265 32.2127 195.265 32.4449 195.164 32.6771C195.03 32.9093 194.895 33.1083 194.727 33.3073C193.449 34.6673 192.171 35.9941 190.859 37.3541C190.826 37.3873 190.792 37.3873 190.725 37.4205C190.725 36.6244 190.725 35.8283 190.725 35.0654C190.725 34.3688 190.725 33.6722 190.792 32.9424C190.826 32.3454 191.027 32.2127 191.599 32.1463C191.767 32.1132 191.935 32.08 192.104 32.0468C192.104 32.0137 192.104 31.9473 192.104 31.9141C191.969 31.881 191.868 31.8146 191.734 31.8146C190.254 31.8146 188.741 31.8146 187.261 31.8146C187.126 31.8146 187.025 31.881 186.891 31.9141C186.891 31.9805 186.891 32.0137 186.891 32.08C187.093 32.1132 187.294 32.1463 187.463 32.1463C188.337 32.2127 188.572 32.4449 188.572 33.3073C188.572 36.4254 188.572 39.5102 188.572 42.6283C188.572 42.96 188.505 43.2917 188.438 43.6234C188.371 44.0215 188.135 44.1873 187.732 44.2205C187.53 44.2205 187.328 44.2537 187.16 44.2868C187.16 44.3532 187.16 44.3863 187.16 44.4527C187.294 44.4859 187.463 44.5522 187.597 44.5522C188.505 44.5522 189.447 44.519 190.355 44.519C190.893 44.519 191.465 44.5522 192.003 44.5522C192.137 44.5522 192.272 44.4859 192.44 44.4527C192.44 44.3863 192.44 44.3532 192.406 44.2868C192.137 44.2537 191.868 44.2537 191.599 44.2205C191.061 44.1873 190.792 43.9551 190.792 43.4244C190.758 41.6995 190.792 39.9415 190.792 38.1834C190.96 38.1834 191.061 38.2829 191.128 38.3824ZM166.847 31.9805C167.082 32.0137 167.318 32.0468 167.52 32.08C168.192 32.1463 168.461 32.3454 168.461 33.0088C168.495 35.3307 168.495 37.6859 168.495 40.0078C168.495 40.3727 168.428 40.7707 168.36 41.1356C168.091 42.761 167.015 43.7229 165.266 43.8224C163.719 43.922 162.408 43.0595 161.97 41.5668C161.802 40.9698 161.701 40.3395 161.701 39.7424C161.668 37.6195 161.668 35.5298 161.701 33.4068C161.701 32.5112 161.769 32.08 162.879 32.08C162.946 32.08 163.047 32.0137 163.114 31.9473C163.047 31.881 162.946 31.8146 162.879 31.7815C162.811 31.7483 162.744 31.7815 162.643 31.7815C161.163 31.7815 159.717 31.7815 158.237 31.7815C158.137 31.7815 158.036 31.7815 157.935 31.8146C157.868 31.8478 157.834 31.9141 157.767 31.9805C157.834 32.0137 157.868 32.08 157.935 32.08C158.17 32.1132 158.406 32.1132 158.641 32.1463C159.145 32.2127 159.347 32.4117 159.415 32.9093C159.448 33.2078 159.482 33.5395 159.482 33.838C159.482 35.5629 159.482 37.2878 159.482 39.0127C159.482 39.6429 159.515 40.3063 159.65 40.9366C159.953 42.7278 160.928 43.9883 162.71 44.4859C163.887 44.8176 165.132 44.8839 166.342 44.5522C168.058 44.121 169.268 43.0927 169.672 41.3678C169.84 40.638 169.941 39.8751 169.975 39.1454C170.008 37.6527 169.975 36.1268 170.008 34.6341C170.008 34.0702 170.042 33.5063 170.075 32.9093C170.109 32.3785 170.311 32.1795 170.849 32.1132C171.051 32.08 171.286 32.0468 171.488 32.0468C171.488 31.9805 171.488 31.9473 171.488 31.881C171.353 31.8478 171.219 31.7815 171.084 31.7815C169.806 31.7815 168.495 31.7815 167.217 31.7815C167.082 31.7815 166.948 31.8478 166.847 31.881C166.847 31.881 166.847 31.9141 166.847 31.9805ZM27.4139 46.5093C28.7255 47.438 30.0034 48.3668 31.3487 49.3288C31.315 49.1629 31.2814 49.0634 31.2478 48.9971C30.8106 47.7034 30.407 46.3766 29.9362 45.0829C29.8353 44.8176 29.9025 44.7181 30.1043 44.5522C31.2141 43.7893 32.2903 42.9932 33.4001 42.1971C33.501 42.1307 33.6019 42.0644 33.7701 41.9317C33.5347 41.9317 33.4338 41.9317 33.2992 41.9317C31.954 41.9317 30.5752 41.9317 29.2299 41.9317C28.9609 41.9317 28.8264 41.8654 28.7591 41.6C28.49 40.7376 28.221 39.8751 27.9183 39.0459C27.7502 38.5151 27.582 37.9844 27.3802 37.3873C27.313 37.52 27.313 37.5863 27.2793 37.6527C26.8421 38.9795 26.4049 40.2732 25.9677 41.6C25.9005 41.8654 25.766 41.9317 25.4969 41.9317C24.118 41.9317 22.7392 41.9317 21.3603 41.9317C21.2594 41.9317 21.1585 41.9317 20.9904 41.9649C21.0913 42.0644 21.1585 42.0976 21.1922 42.1307C22.3356 42.9268 23.4791 43.7561 24.6225 44.5522C24.8579 44.7181 24.9252 44.8507 24.8243 45.1161C24.6561 45.481 24.5553 45.879 24.4207 46.2771C24.0844 47.2722 23.7817 48.2341 23.4118 49.3288C24.8243 48.3668 26.1023 47.438 27.4139 46.5093ZM97.9375 44.2205C97.803 44.1873 97.6685 44.1541 97.534 44.1541C96.8614 44.1873 96.3569 43.8888 96.0542 43.3249C95.8188 42.9268 95.617 42.5288 95.4152 42.0976C94.1373 38.9795 92.8593 35.8283 91.5477 32.6771C91.4132 32.3454 91.2786 31.9805 91.0769 31.6488C90.9087 31.2839 90.6733 31.2839 90.5051 31.6488C90.4043 31.8478 90.3034 32.08 90.2025 32.3122C88.7563 35.8283 87.3438 39.3444 85.9314 42.8273C85.5951 43.6234 85.1242 44.2205 84.1489 44.1541C84.048 44.1541 83.9472 44.2537 83.8463 44.32C83.9472 44.3863 84.048 44.4859 84.1489 44.4859C85.4269 44.4859 86.7049 44.4859 87.9828 44.4859C88.0837 44.4859 88.2182 44.3863 88.3191 44.3532C88.3191 44.32 88.2855 44.2537 88.2855 44.2205C88.1174 44.2205 87.9828 44.1873 87.8147 44.1873C87.1757 44.1541 86.9739 43.9551 87.1421 43.3249C87.4447 42.3961 87.7811 41.5337 88.1174 40.638C88.151 40.5385 88.3191 40.439 88.42 40.439C89.1599 40.4059 89.9334 40.3395 90.6733 40.439C91.9513 40.6049 92.8593 41.2683 93.2965 42.5288C93.3974 42.8273 93.5319 43.1259 93.6328 43.4244C93.8346 43.9883 93.8346 43.9883 93.3974 44.2868C93.3974 44.2868 93.3974 44.32 93.3974 44.4527C94.9108 44.519 96.3905 44.5854 97.9039 44.4527C97.9039 44.3532 97.9039 44.2868 97.9375 44.2205ZM88.3191 40.1405C88.9918 38.3493 89.6644 36.5912 90.337 34.8663C90.3706 34.8663 90.4043 34.8663 90.4379 34.8663C91.0769 36.5249 91.6822 38.1834 92.3548 39.9083C90.9423 39.4107 89.6644 39.7756 88.3191 40.1405ZM183.931 44.3863C184.369 44.32 184.604 44.0546 184.671 43.6234C184.772 42.9932 184.907 42.3298 184.974 41.6995C184.974 41.6 184.873 41.4673 184.839 41.3346C184.772 41.4341 184.671 41.5337 184.638 41.6332C184.335 42.6946 183.662 43.358 182.552 43.5902C182.149 43.6566 181.745 43.6566 181.342 43.6898C178.954 43.8888 176.734 42.2302 175.961 40.1405C175.356 38.482 175.356 36.7902 175.927 35.0985C176.398 33.7385 177.373 32.8098 178.853 32.478C180.131 32.2127 181.375 32.279 182.62 32.7102C183.73 33.0751 184.369 33.8049 184.436 34.9659C184.436 35.0654 184.537 35.1649 184.604 35.2976C184.671 35.198 184.738 35.0654 184.806 34.9659C184.806 34.9327 184.806 34.8995 184.806 34.8663C184.839 34.0039 184.907 33.1415 184.907 32.279C184.907 32.1795 184.772 32.0468 184.671 31.9805C184.604 31.9141 184.469 31.9473 184.335 31.9141C182.586 31.5824 180.837 31.4166 179.089 31.5824C175.692 31.9141 173.405 34.2029 173.102 37.2546C172.867 39.7093 173.741 42.1971 176.23 43.6234C177.743 44.4859 179.358 44.718 181.073 44.7844C182.048 44.6517 182.99 44.519 183.931 44.3863ZM140.043 44.2205C139.841 44.1873 139.673 44.1541 139.472 44.1541C138.395 44.0878 138.227 43.922 138.194 42.8605C138.194 42.8273 138.194 42.761 138.194 42.7278C138.16 39.4771 138.16 36.2595 138.126 33.0088C138.126 32.9093 138.16 32.8098 138.16 32.8098C139.068 32.8098 139.909 32.8098 140.783 32.8098C141.019 32.8098 141.288 32.8761 141.489 32.9424C141.96 33.0751 142.296 33.3405 142.33 33.8712C142.33 33.9707 142.465 34.1034 142.532 34.2029C142.599 34.0702 142.666 33.9707 142.7 33.838C142.734 33.2078 142.734 32.5776 142.734 31.9473C142.734 31.7151 142.666 31.6488 142.397 31.682C141.893 31.7483 141.388 31.8146 140.884 31.8146C138.631 31.8146 136.411 31.8478 134.158 31.8146C133.384 31.8146 132.611 31.6488 131.871 31.5824C131.77 31.5824 131.602 31.682 131.568 31.7815C131.434 32.4117 131.299 33.0751 131.198 33.7054C131.165 33.8049 131.266 33.9376 131.333 34.0702C131.4 33.9707 131.501 33.9044 131.568 33.7717C131.736 33.3405 131.972 32.9424 132.51 32.8761C133.687 32.7766 134.83 32.7434 136.008 32.6771C136.008 32.8429 136.041 32.9424 136.041 33.0088C136.041 35.961 136.041 38.9463 136.041 41.8985C136.041 42.4293 136.008 42.9268 135.907 43.4576C135.839 43.9883 135.671 44.0878 135.133 44.1541C134.965 44.1541 134.763 44.1873 134.595 44.2205C134.595 44.2868 134.595 44.32 134.595 44.3863C134.73 44.4195 134.898 44.4859 135.032 44.4859C136.579 44.4859 138.126 44.4859 139.707 44.4859C139.841 44.4859 140.01 44.4195 140.144 44.3863C140.043 44.32 140.043 44.2537 140.043 44.2205ZM81.8284 32.7766C82.6019 32.8429 83.4427 32.9424 83.4763 34.0039C83.4763 34.0702 83.5772 34.1366 83.6445 34.1698C83.6781 34.1034 83.779 34.0039 83.779 33.9376C83.8126 33.2741 83.8126 32.5776 83.8463 31.9141C83.8463 31.6488 83.7454 31.6156 83.5099 31.6488C83.0727 31.7151 82.6355 31.7815 82.1983 31.7815C79.8106 31.7815 77.3892 31.8146 75.0014 31.7815C74.3288 31.7815 73.6561 31.6488 72.9835 31.5161C72.7145 31.4829 72.6808 31.6488 72.6472 31.8146C72.5127 32.4117 72.4118 33.042 72.3109 33.639C72.2773 33.7717 72.3782 33.9044 72.4118 34.0371C72.5127 33.9376 72.6136 33.8712 72.6808 33.7385C72.849 33.3073 73.0844 32.9093 73.6225 32.8761C74.7996 32.7766 75.943 32.7434 77.1537 32.6771C77.1537 32.8429 77.1874 32.9424 77.1874 33.042C77.1874 35.6293 77.1874 38.1834 77.1874 40.7707C77.1874 41.6663 77.1201 42.562 77.0528 43.4576C77.0192 43.9551 76.8174 44.0878 76.313 44.1541C76.1112 44.1873 75.9094 44.1873 75.7412 44.2205C75.7412 44.2868 75.7412 44.32 75.7412 44.3863C75.9094 44.4195 76.0439 44.4859 76.2121 44.4859C77.1201 44.4859 78.0281 44.4527 78.9362 44.4527C79.5751 44.4527 80.1805 44.4859 80.8195 44.4859C80.954 44.4859 81.1222 44.4195 81.2567 44.3863C81.2567 44.3532 81.2567 44.2868 81.2567 44.2537C81.1558 44.2205 81.0213 44.1873 80.9204 44.1873C80.7522 44.1541 80.5841 44.1873 80.4495 44.1541C79.7433 44.121 79.5079 43.8888 79.4743 43.1922C79.4406 42.6615 79.407 42.1639 79.407 41.6332C79.407 38.7805 79.407 35.8946 79.407 33.042C79.407 32.9424 79.407 32.8429 79.407 32.7766C80.1469 32.7434 81.0213 32.7102 81.8284 32.7766ZM171.387 55.8634C170.883 53.2429 167.553 52.082 165.367 53.7073C164.089 54.6693 163.887 56.0293 164.089 57.4888C164.291 58.8156 165.031 59.7112 166.342 60.1093C166.78 60.242 167.284 60.2751 167.755 60.3415C170.277 60.3415 171.858 58.3181 171.387 55.8634ZM169.605 59.2468C168.192 60.64 165.737 59.9766 165.132 58.0859C164.829 57.0907 164.829 56.0956 165.165 55.1337C165.67 53.6741 166.847 53.0771 168.36 53.5083C169.638 53.8732 170.445 54.9678 170.546 56.4273C170.546 56.5268 170.546 56.6263 170.546 56.7259C170.513 57.6546 170.311 58.5502 169.605 59.2468ZM76.1448 60.1756C77.0865 60.1756 78.0618 60.2088 79.0034 60.1093C79.8106 60.0429 80.4495 59.678 80.685 58.8488C80.954 57.9532 80.685 57.1239 79.9787 56.5932C79.7769 56.4273 79.5079 56.3278 79.2725 56.1951C79.3061 56.162 79.3061 56.1288 79.3061 56.1288C79.9787 55.5649 80.2141 54.802 79.9451 54.039C79.7097 53.442 79.1379 53.1102 78.2299 53.1102C77.5909 53.1102 76.9856 53.1102 76.3466 53.1102C76.2457 53.1102 76.1784 53.1434 76.0439 53.1434C76.7165 53.5415 76.7165 53.5415 76.7165 54.3376C76.7165 55.9629 76.6829 57.5883 76.7165 59.2137C76.7165 59.6449 76.6156 59.9766 76.0776 60.0761C76.0776 60.1424 76.1112 60.1756 76.1448 60.1756ZM79.9115 58.8156C79.8442 59.3463 79.5079 59.6449 79.0371 59.8107C78.7008 59.9102 78.3308 59.9434 77.9945 59.9434C77.7255 59.9434 77.5573 59.7776 77.49 59.5122C77.4564 59.4127 77.49 59.3132 77.49 59.2137C77.49 58.318 77.49 57.4224 77.49 56.56C79.0707 56.2615 80.1469 57.3229 79.9115 58.8156ZM77.4228 55.6644C77.4228 55.0341 77.4228 54.4039 77.4228 53.7737C77.4228 53.5083 77.5237 53.4088 77.7927 53.4088C78.3644 53.442 78.8353 53.6078 79.1043 54.1385C79.3734 54.7024 79.3397 55.2663 79.0034 55.7971C78.768 56.1288 78.3981 56.1951 78.0281 56.1951C77.4228 56.2283 77.4228 56.2283 77.4228 55.6644ZM121.479 60.242C121.479 60.1093 121.513 59.9766 121.513 59.8439C121.513 58.9815 121.513 58.119 121.513 57.2566C121.513 56.162 121.513 55.0673 121.513 53.9727C121.513 53.6078 121.614 53.3424 122.051 53.2761C122.084 53.2761 122.118 53.2429 122.185 53.1766C121.479 53.1766 120.84 53.1766 120.1 53.1766C120.201 53.2429 120.235 53.2761 120.302 53.2761C120.941 53.5083 120.975 53.5415 120.975 54.2049C120.975 55.6976 120.975 57.1571 120.975 58.6498C120.975 58.7493 120.975 58.882 120.941 59.081C119.091 56.9912 117.275 55.001 115.493 52.9776C115.459 53.0107 115.426 53.0107 115.392 53.0439C115.392 53.1766 115.358 53.3424 115.358 53.4751C115.358 55.3327 115.358 57.1902 115.358 59.0478C115.358 59.5454 115.325 59.9766 114.753 60.1756C115.392 60.1756 116.065 60.1756 116.703 60.1756C115.997 60.0429 115.93 59.5122 115.93 58.9483C115.93 57.4888 115.93 56.0624 115.93 54.6029C115.93 54.5034 115.93 54.3707 115.964 54.1717C117.813 56.2615 119.596 58.2849 121.378 60.3415C121.378 60.2751 121.445 60.2751 121.479 60.242ZM131.198 60.242C131.198 60.1093 131.232 59.9766 131.232 59.8439C131.232 58.8488 131.232 57.8868 131.232 56.8917C131.232 55.8966 131.232 54.9346 131.232 53.9395C131.232 53.6078 131.333 53.3424 131.736 53.2761C131.77 53.2761 131.837 53.2098 131.905 53.1766C131.198 53.1766 130.559 53.1766 129.819 53.1766C129.954 53.2429 129.988 53.2761 130.021 53.2761C130.627 53.4751 130.66 53.5415 130.66 54.1717C130.66 55.6644 130.66 57.1571 130.66 58.6498C130.66 58.7493 130.66 58.882 130.66 59.081C128.777 56.9912 126.994 54.9678 125.178 52.9444C125.078 53.1434 125.078 53.3093 125.078 53.442C125.078 55.2 125.078 56.9249 125.078 58.6829C125.078 59.2468 125.212 59.8439 124.506 60.1093C125.145 60.1093 125.784 60.1093 126.423 60.1093C125.683 59.9766 125.649 59.4127 125.649 58.8488C125.649 57.4224 125.649 55.9961 125.649 54.5366C125.649 54.4371 125.649 54.3044 125.683 54.1054C127.533 56.1951 129.315 58.2185 131.097 60.2751C131.097 60.2751 131.131 60.2751 131.198 60.242ZM180.367 60.2751C180.434 60.1093 180.467 59.9766 180.467 59.8439C180.467 58.0195 180.467 56.2283 180.467 54.4039C180.467 53.9063 180.333 53.3424 181.073 53.1766C180.434 53.1766 179.795 53.1766 179.055 53.1766C179.156 53.2429 179.189 53.2761 179.223 53.2761C179.862 53.5083 179.862 53.5415 179.862 54.2049C179.862 55.6644 179.862 57.1571 179.862 58.6166C179.862 58.7493 179.862 58.882 179.828 59.081C177.979 56.9912 176.163 55.001 174.38 52.9776C174.347 53.0107 174.313 53.0107 174.279 53.0439C174.279 53.1766 174.279 53.3093 174.279 53.4751C174.279 55.2995 174.279 57.0907 174.279 58.9151C174.279 59.4127 174.313 59.9434 173.674 60.1756C174.313 60.1756 174.952 60.1756 175.591 60.1756C174.885 60.0429 174.817 59.5454 174.817 58.9815C174.817 57.5551 174.817 56.1288 174.817 54.6693C174.817 54.5366 174.817 54.4039 174.851 54.2049C176.768 56.2615 178.483 58.3181 180.367 60.2751ZM110.549 53.2429C110.65 53.2761 110.751 53.3424 110.852 53.3756C111.121 53.4751 111.255 53.6741 111.255 53.9727C111.255 55.1337 111.289 56.3278 111.222 57.4888C111.188 58.0195 111.02 58.5502 110.751 59.0478C110.415 59.678 109.843 60.0098 109.069 59.9766C108.296 59.9434 107.69 59.5785 107.421 58.882C107.22 58.3844 107.085 57.8205 107.051 57.2898C106.984 56.2615 107.051 55.2663 107.051 54.238C107.051 53.7737 107.119 53.4088 107.623 53.2429V53.2098C106.883 53.2098 106.143 53.2098 105.303 53.2098C105.471 53.2761 105.572 53.3093 105.639 53.3424C106.143 53.5083 106.177 53.5746 106.177 54.1054C106.177 54.5366 106.177 54.9678 106.177 55.3659C106.211 56.2615 106.177 57.1571 106.312 58.0527C106.48 59.081 107.051 59.9434 108.161 60.2088C109.944 60.64 111.625 59.8107 111.76 57.6546C111.827 56.56 111.793 55.4654 111.827 54.3707C111.827 53.9063 111.76 53.3756 112.399 53.2098C111.76 53.2098 111.154 53.2098 110.515 53.2098C110.549 53.2098 110.549 53.2098 110.549 53.2429ZM116.334 38.6146L118.116 37.321H115.896C115.896 37.321 115.325 35.5298 115.19 35.0985C114.955 35.762 114.484 37.2546 114.484 37.2546H112.264L114.047 38.6146C114.047 38.6146 113.542 40.0741 113.34 40.7376C113.946 40.3063 115.224 39.4107 115.224 39.4107C115.224 39.4107 116.502 40.3395 117.107 40.7376C116.838 40.1073 116.334 38.6146 116.334 38.6146ZM184.301 60.1756C185.411 60.1756 186.555 60.1756 187.664 60.1756C187.765 60.1756 187.967 60.1093 187.967 60.0429C188.068 59.7112 188.102 59.3795 188.169 59.0478C188.135 59.0146 188.068 59.0146 188.034 58.9815C187.967 59.5454 187.597 59.7776 187.093 59.8439C186.723 59.8771 186.353 59.8439 185.983 59.8107C185.714 59.7776 185.613 59.6117 185.613 59.3463C185.613 58.5502 185.613 57.7541 185.613 56.9581C185.613 56.759 185.68 56.6595 185.916 56.6595C186.218 56.6595 186.521 56.6595 186.824 56.6595C187.16 56.6595 187.395 56.8254 187.463 57.1571C187.496 57.2234 187.496 57.2898 187.563 57.4556C187.631 56.9249 187.664 56.4937 187.698 56.0956C187.496 56.162 187.294 56.2946 187.059 56.3278C186.689 56.361 186.286 56.3278 185.916 56.3278C185.647 56.3278 185.546 56.2283 185.546 55.9629C185.546 55.2663 185.546 54.5698 185.546 53.8732C185.546 53.7737 185.714 53.5746 185.815 53.5746C186.218 53.5415 186.588 53.5746 186.992 53.5746C187.395 53.6078 187.563 53.9063 187.732 54.238C187.799 53.8732 187.833 53.5083 187.9 53.1766C186.588 53.1766 185.344 53.1766 184.066 53.1766C184.234 53.3424 184.503 53.4088 184.604 53.5415C184.705 53.7073 184.705 53.9727 184.705 54.1717C184.705 55.9298 184.671 57.6546 184.671 59.4127C184.671 59.7776 184.604 60.0429 184.133 60.1093C184.268 60.1424 184.268 60.1756 184.301 60.1756ZM160.255 56.2946C159.953 56.3278 159.65 56.2946 159.381 56.2946C159.112 56.2946 159.011 56.1951 159.011 55.9298C159.011 55.2332 159.011 54.5366 159.011 53.84C159.011 53.7405 159.179 53.5415 159.28 53.5415C159.684 53.5083 160.054 53.5415 160.457 53.5415C160.861 53.5746 161.029 53.8732 161.197 54.2049C161.264 53.84 161.298 53.4751 161.365 53.1434C160.054 53.1434 158.809 53.1434 157.531 53.1434C157.565 53.2429 157.598 53.2761 157.632 53.2761C158.069 53.3424 158.17 53.6078 158.17 54.039C158.137 55.7971 158.137 57.522 158.137 59.28C158.137 59.6449 158.17 60.0098 157.632 60.1093C158.843 60.1424 160.02 60.1424 161.163 60.1424C161.264 60.1424 161.399 60.0761 161.399 60.0098C161.466 59.678 161.533 59.3463 161.601 59.0146C161.567 59.0146 161.533 59.0146 161.5 59.0146C161.13 59.6449 161.062 59.7444 160.558 59.8107C160.188 59.8439 159.784 59.8107 159.415 59.7776C159.145 59.7444 159.045 59.5785 159.011 59.3132C159.011 58.5171 159.011 57.721 159.011 56.9249C159.011 56.7259 159.078 56.6263 159.314 56.6263C159.616 56.6263 159.919 56.6263 160.222 56.6263C160.558 56.6263 160.793 56.759 160.861 57.1239C160.894 57.1902 160.894 57.2566 160.962 57.4224C161.029 56.8917 161.062 56.4605 161.096 56.0956C160.861 56.162 160.558 56.2615 160.255 56.2946ZM135.268 54.0059C135.839 54.802 136.31 55.6644 136.848 56.4937C137.117 56.9249 137.252 57.4224 137.252 57.9532C137.252 58.3844 137.218 58.8156 137.252 59.2137C137.286 59.6117 137.218 59.9434 136.781 60.1424C137.454 60.1424 138.093 60.1424 138.765 60.1424C138.328 60.0098 138.059 59.7776 138.059 59.3132C138.059 58.7824 138.059 58.2849 138.059 57.7541C138.059 57.2234 138.227 56.759 138.496 56.3278C138.866 55.7307 139.236 55.1668 139.572 54.5698C139.909 54.0059 140.279 53.5083 140.918 53.3093C140.918 53.3093 140.918 53.2761 140.918 53.2429C140.38 53.2429 139.808 53.2429 139.169 53.2429C139.64 53.5415 139.472 53.84 139.303 54.1054C138.833 54.9346 138.362 55.7307 137.857 56.56C137.824 56.6263 137.756 56.6927 137.689 56.759C137.084 55.7639 136.512 54.802 135.94 53.84C135.806 53.6078 135.806 53.3756 136.142 53.2098C135.469 53.2098 134.83 53.2098 134.259 53.2098C134.696 53.442 135.066 53.6741 135.268 54.0059ZM83.14 53.2761C83.8463 53.442 84.1489 54.0059 84.4516 54.5366C84.6198 54.8351 84.8215 55.1337 85.0233 55.4322C86.3013 57.4556 86.0659 56.9249 86.0995 59.1473C86.0995 59.5454 86.1668 59.9766 85.6287 60.1756C86.3013 60.1756 86.9403 60.1756 87.6129 60.1756C86.9739 60.0429 86.873 59.5785 86.9067 59.0478C86.9403 58.6829 86.9067 58.2849 86.9067 57.92C86.9067 57.3561 87.0412 56.8585 87.3438 56.361C87.7474 55.7307 88.1174 55.1337 88.4873 54.5034C88.79 53.9727 89.1599 53.5083 89.7989 53.3424C89.8325 53.3424 89.8325 53.2761 89.8325 53.2429C89.2608 53.2429 88.7227 53.2429 88.2519 53.2429C88.2855 53.4751 88.3864 53.7405 88.3191 53.9063C87.8147 54.8683 87.243 55.8302 86.6712 56.8254C86.5703 56.6927 86.5031 56.5932 86.4358 56.4605C85.965 55.6312 85.4605 54.8351 84.9897 54.0059C84.8215 53.7405 84.687 53.4751 85.1242 53.2098C84.7206 53.2429 84.418 53.2761 84.1153 53.2761C83.8126 53.2761 83.5099 53.2429 83.2073 53.2429C83.1736 53.1766 83.1736 53.2098 83.14 53.2761ZM98.8119 58.6829C98.8119 59.0146 98.8456 59.3795 98.8119 59.7112C98.7783 60.0098 98.9465 60.1756 99.1819 60.1756C99.7872 60.2088 100.426 60.2751 100.998 60.1756C101.872 60.0429 102.343 59.4127 102.41 58.5502C102.478 57.522 101.973 56.8254 101.166 56.2283C100.695 55.8966 100.224 55.4985 99.8545 55.0673C99.4173 54.5698 99.6191 53.8068 100.124 53.5083C100.897 53.1102 101.771 53.4751 102.074 54.2712C102.074 54.3044 102.141 54.3376 102.209 54.4039C102.209 54.039 102.242 53.7405 102.209 53.442C102.209 53.3424 102.074 53.2098 101.973 53.1766C101.334 52.9776 100.662 52.9444 99.989 53.1102C99.3837 53.2761 98.9801 53.7737 99.0137 54.4039C99.0474 55.399 99.6191 56.1288 100.325 56.7259C100.729 57.0576 101.099 57.4224 101.435 57.8205C101.805 58.2849 101.771 59.0146 101.435 59.479C101.065 60.0098 100.527 60.0429 99.9554 59.9434C99.35 59.8439 99.0473 59.479 98.9465 58.882C98.9465 58.8156 98.8792 58.7161 98.8792 58.6498C98.8792 58.6498 98.8456 58.6498 98.8119 58.6829ZM149.897 53.1766C150.671 53.5083 150.704 53.5415 150.704 54.3044V54.3376C150.704 55.8966 150.704 57.4556 150.704 59.0478C150.704 59.5122 150.603 59.9102 149.998 60.1424C150.671 60.1424 151.242 60.1424 151.814 60.1424C152.386 60.1424 152.957 60.1756 153.563 60.1756C154.336 60.1756 154.605 59.7444 154.336 58.9815C154.303 59.0478 154.235 59.1141 154.202 59.1805C153.966 59.7112 153.563 59.9434 152.991 59.8771C152.857 59.8771 152.688 59.8771 152.554 59.8771C151.747 59.8771 151.511 59.6449 151.511 58.882C151.511 57.4888 151.511 56.0624 151.511 54.6693C151.511 53.7405 151.511 53.7405 152.218 53.2429C151.444 53.1766 150.704 53.1766 149.897 53.1766Z" fill="black"/>
</g>
<defs>
<clipPath id="clip0_1317_23636">
<rect width="210" height="89.9999" fill="white"/>
</clipPath>
</defs>
</svg>
