<svg width="210" height="90" viewBox="0 0 210 90" fill="none" xmlns="http://www.w3.org/2000/svg">
<g clip-path="url(#clip0_1317_23620)">
<path d="M83.5576 68.1775C83.5977 68.1828 83.6385 68.1789 83.6767 68.1659C83.7149 68.1529 83.7496 68.1312 83.7781 68.1023C83.8196 68.0429 83.8401 67.9713 83.8363 67.8989V62.5968C83.8404 62.5236 83.82 62.4511 83.7781 62.3909C83.7496 62.3622 83.7149 62.3403 83.6767 62.3275C83.6385 62.3143 83.5977 62.3104 83.5576 62.3156V62.1752H85.0988V62.3156C85.0585 62.3106 85.0173 62.3146 84.9788 62.3276C84.9402 62.3407 84.9049 62.3623 84.8759 62.3909C84.8341 62.4511 84.8137 62.5236 84.8177 62.5968V67.8989C84.8139 67.9713 84.8345 68.0429 84.8759 68.1023C84.9049 68.1309 84.9402 68.1526 84.9788 68.1656C85.0173 68.1786 85.0585 68.1827 85.0988 68.1775V68.3181H83.5576V68.1775ZM94.1956 66.777V62.5968C94.199 62.5233 94.1776 62.4507 94.135 62.3909C94.1066 62.3622 94.0719 62.3403 94.0335 62.3275C93.9953 62.3143 93.9546 62.3104 93.9146 62.3156V62.1752H95.3152V62.3156C95.2751 62.3104 95.2343 62.3143 95.1961 62.3275C95.1578 62.3403 95.123 62.3622 95.0946 62.3909C95.0518 62.4506 95.0313 62.5235 95.0365 62.5968V67.8989C95.0317 67.9714 95.0522 68.0434 95.0946 68.1023C95.123 68.1312 95.1578 68.1529 95.1961 68.1659C95.2343 68.1789 95.2751 68.1828 95.3152 68.1775V68.3181H93.8199V68.1775C93.9776 68.1775 94.0624 68.146 94.0624 68.0854C94.0638 68.0358 94.0464 67.9874 94.0139 67.9497C93.9891 67.9224 93.9664 67.8933 93.946 67.8626L89.7879 63.1324V67.8989C89.7841 67.9713 89.8045 68.0429 89.846 68.1023C89.875 68.1309 89.9101 68.1526 89.9487 68.1656C89.9874 68.1786 90.0284 68.1827 90.0689 68.1775V68.3181H88.6658V68.1775C88.7063 68.1827 88.7473 68.1786 88.7859 68.1656C88.8246 68.1526 88.8597 68.1309 88.8886 68.1023C88.9301 68.0429 88.9507 67.9713 88.9469 67.8989V62.5968C88.9509 62.5236 88.9305 62.4511 88.8886 62.3909C88.8597 62.3623 88.8246 62.3407 88.7859 62.3276C88.7473 62.3146 88.7063 62.3106 88.6658 62.3156V62.1752H90.6408V62.3156C90.581 62.3104 90.5211 62.3205 90.4663 62.3449C90.4501 62.3556 90.4369 62.3705 90.4285 62.3879C90.42 62.4054 90.4163 62.4248 90.4177 62.4442C90.4193 62.4716 90.4294 62.498 90.447 62.5192C90.4661 62.5473 90.4879 62.5732 90.5123 62.5968L94.1786 66.777H94.1956ZM98.9597 62.5968C98.9638 62.5236 98.9433 62.4511 98.9015 62.3909C98.8722 62.3627 98.837 62.3414 98.7984 62.3284C98.7599 62.3154 98.7191 62.3111 98.6787 62.3156V62.1752H102.299C102.743 62.1693 103.184 62.2464 103.6 62.403C103.964 62.5454 104.295 62.7623 104.569 63.0404C104.842 63.3169 105.055 63.6468 105.195 64.0097C105.346 64.4032 105.421 64.8215 105.418 65.243C105.421 65.6608 105.358 66.0765 105.229 66.4739C105.115 66.8325 104.927 67.1628 104.676 67.4432C104.431 67.7261 104.127 67.9511 103.784 68.1023C103.385 68.2614 102.959 68.3389 102.529 68.3301H98.6787V68.1897C98.7191 68.1949 98.7602 68.1907 98.7988 68.1777C98.8373 68.1649 98.8725 68.143 98.9015 68.1145C98.943 68.055 98.9635 67.9834 98.9597 67.911V62.5968ZM102.415 67.5475C103.1 67.5475 103.614 67.3529 103.956 66.9634C104.301 66.5733 104.47 65.9941 104.47 65.2479C104.47 64.5015 104.274 63.92 103.881 63.5298C103.655 63.3257 103.391 63.1691 103.103 63.0687C102.815 62.9684 102.511 62.9266 102.207 62.9458H99.9411V67.55L102.415 67.5475ZM108.464 68.1775C108.504 68.1827 108.545 68.1786 108.584 68.1656C108.622 68.1526 108.658 68.1309 108.687 68.1023C108.728 68.0429 108.748 67.9713 108.745 67.8989V62.5968C108.749 62.5236 108.728 62.4511 108.687 62.3909C108.658 62.3623 108.622 62.3407 108.584 62.3276C108.545 62.3146 108.504 62.3106 108.464 62.3156V62.1752H110.007V62.3156C109.967 62.3102 109.926 62.3141 109.887 62.3271C109.848 62.3401 109.813 62.3619 109.784 62.3909C109.743 62.4511 109.722 62.5236 109.726 62.5968V67.8989C109.722 67.9713 109.743 68.0429 109.784 68.1023C109.813 68.1313 109.848 68.1532 109.887 68.1662C109.926 68.1793 109.967 68.1831 110.007 68.1775V68.3181H108.464V68.1775ZM114.105 67.6178L114.001 67.86C113.968 67.922 113.948 67.9894 113.94 68.0588C113.94 68.146 114.008 68.1873 114.139 68.1873V68.3277H112.704V68.1873C112.745 68.1927 112.785 68.1927 112.825 68.1873C112.866 68.1772 112.902 68.152 112.925 68.117C112.965 68.0641 113 68.0081 113.031 67.9497L113.182 67.6516L115.295 62.9337L115.435 62.6356C115.462 62.5871 115.479 62.5334 115.484 62.478C115.484 62.3836 115.413 62.3376 115.273 62.3376V62.197H116.969V62.3376C116.846 62.3376 116.783 62.3836 116.783 62.478C116.788 62.5416 116.808 62.603 116.841 62.6574C116.882 62.7326 116.93 62.8367 116.993 62.9676L119.235 67.6153L119.4 67.9426C119.429 68.0056 119.466 68.0642 119.511 68.117C119.538 68.1529 119.577 68.1777 119.62 68.1873C119.675 68.1932 119.73 68.1932 119.785 68.1873V68.3277H118.161V68.1873C118.226 68.1953 118.292 68.1807 118.348 68.146C118.364 68.1305 118.377 68.1116 118.385 68.0906C118.393 68.0698 118.396 68.0472 118.394 68.025C118.393 67.9821 118.383 67.94 118.365 67.9013C118.346 67.8577 118.304 67.768 118.244 67.6276L117.8 66.6921H114.502L114.105 67.6178ZM117.41 65.9215L116.09 63.1664L114.878 65.9215H117.41Z" fill="black"/>
<path d="M54.351 33.1186C54.1354 33.138 53.8107 33.15 53.3817 33.1694C52.5942 33.247 51.9957 33.2786 51.5933 33.2786C50.8932 33.2786 50.0111 33.2253 48.969 33.1186L48.8212 33.1016L48.5789 33.6831L48.8212 33.7365C49.1495 33.7846 49.449 33.9498 49.6645 34.2018C49.8339 34.4504 49.9188 34.7469 49.9069 35.0475C49.9053 35.3256 49.8688 35.6025 49.7978 35.8713C49.7202 36.1767 49.6331 36.4651 49.5338 36.7413C49.3722 37.2599 49.1347 37.9722 48.8212 38.8787C48.2978 40.4271 47.8519 41.7211 47.4885 42.7557C47.125 43.7905 46.7809 44.7405 46.4611 45.591L45.9279 47.0037C45.2107 48.8452 44.6824 50.2186 44.3432 51.1231C44.2414 50.8663 44.1008 50.527 43.9191 50.1078C42.9498 47.7404 42.2374 45.9884 41.76 44.7598L41.5346 44.2024C40.9603 42.6757 40.4442 41.3163 39.9983 40.129C39.5524 38.9417 39.1187 37.7615 38.7164 36.6178C38.5405 36.1061 38.4505 35.5691 38.4498 35.0281C38.4498 34.444 38.6074 34.0588 38.9345 33.8165L39.0896 33.7098L38.8473 33.1961H38.7091C37.5387 33.264 36.6348 33.3027 36.0242 33.3027C35.5541 33.3027 34.7956 33.2567 33.773 33.1694C33.6688 33.15 33.5089 33.133 33.2884 33.1137L33 33.0919L33.1478 33.6977L33.2254 33.7365C33.7525 33.9924 34.2148 34.3643 34.5775 34.8245C34.9028 35.3023 35.175 35.8143 35.3893 36.3511L35.4668 36.5644V36.5765L35.4959 36.6105C35.4959 36.6105 35.5323 36.6879 35.6801 37.0563C36.4749 38.9303 37.1268 40.4731 37.6356 41.6847C38.1372 42.8744 38.588 44.0086 38.9805 45.0506L39.8069 47.0715C40.1057 47.7937 40.4409 48.5917 40.8125 49.4657C41.5201 51.162 42.0241 52.4002 42.39 53.275C42.7559 54.1499 43.0467 54.9277 43.2987 55.5795C43.432 55.9357 43.6137 56.1174 43.8367 56.1224H43.8585C44.0596 56.1224 44.222 55.9696 44.3432 55.6862C44.8787 54.2492 45.3779 52.9456 45.8334 51.809C46.289 50.6724 46.7761 49.456 47.3165 48.1208C47.911 46.667 48.3439 45.586 48.6153 44.8785L49.2767 43.1701C49.8148 41.7284 50.2824 40.5045 50.6605 39.5353C51.0385 38.566 51.4359 37.6307 51.8406 36.7268C52.1395 36.0608 52.51 35.4295 52.9456 34.844C53.305 34.3484 53.7879 33.9557 54.3462 33.705L54.4263 33.6735L54.6685 33.07L54.351 33.1186ZM58.6401 45.3801C59.4713 45.4238 60.3365 45.4456 61.2114 45.4456C62.086 45.4456 62.9851 45.4238 63.8357 45.3801L61.3397 38.406L58.6401 45.3801ZM58.1822 33.0216L58.4803 33.0483C58.8607 33.0846 59.3382 33.1162 59.9341 33.1403C60.5303 33.1646 61.0441 33.1792 61.5118 33.1792H62.3477L63.5593 36.4481L69.6901 52.594C70.1747 53.8881 70.9018 54.7459 71.8711 55.1531L72.0019 55.2014V55.7927L71.7597 55.7516C69.8623 55.4353 67.9258 55.4353 66.0286 55.7516L65.7863 55.7903V55.3759C65.7863 55.1821 65.9099 54.918 66.1813 54.5253C66.5497 53.9971 66.6005 53.7451 66.6005 53.6361C66.5976 53.473 66.5781 53.3106 66.5424 53.1514C66.5081 52.9876 66.4644 52.8257 66.4115 52.6668L64.4729 47.074C63.2299 46.9576 62.1491 46.8994 61.267 46.8994C60.1339 46.8954 59.0014 46.953 57.8745 47.0715L55.6548 53.1514C55.4981 53.5274 55.4009 53.9256 55.3664 54.3315C55.3762 54.6675 55.5182 54.9864 55.7614 55.2185L55.822 55.2862V55.7855L55.5796 55.7491C54.1671 55.5432 52.7321 55.5432 51.3196 55.7491L50.7914 55.8266L51.2978 55.1821L51.356 55.1675C52.5676 54.7653 53.4738 53.8518 54.0216 52.456L60.1741 36.8139C60.2114 36.693 60.2318 36.5674 60.2347 36.4408C60.2157 35.9122 60.0384 35.4015 59.7257 34.9748C59.3706 34.4472 58.9204 33.9902 58.3979 33.6274L58.33 33.5814L58.1822 33.0216ZM75.2829 55.7806L75.5107 55.7563C76.4291 55.6715 77.304 55.628 78.1085 55.628C78.9129 55.628 79.8774 55.6715 80.963 55.7563L81.1908 55.7759V55.1869L81.0647 55.1311C80.639 54.9404 80.2845 54.6198 80.0518 54.2153C79.8163 53.7713 79.683 53.2803 79.6617 52.7783C79.5286 49.9575 79.4583 47.2702 79.4583 44.7816C81.2174 44.7162 83.2359 44.6822 85.4532 44.6822C87.5591 44.6822 89.4977 44.7162 91.223 44.7816V44.8106C91.223 48.3922 91.2036 51.1111 91.1695 52.9066C91.1616 53.3685 91.0258 53.8189 90.7771 54.2079C90.5318 54.58 90.199 54.8861 89.8078 55.0998L89.6964 55.1604V55.7443L89.9192 55.7225C90.8451 55.6353 91.7197 55.5916 92.5195 55.5916C93.3191 55.5916 94.2763 55.6353 95.374 55.7225L95.5969 55.7394V55.1505L95.4756 55.0948C95.0494 54.9035 94.6949 54.5821 94.4627 54.1765C94.2297 53.7326 94.1028 53.2408 94.0919 52.7395C93.9539 49.9068 93.8909 47.2169 93.8909 44.7259C93.8909 42.0167 93.8909 40.2187 93.9151 39.3802C93.9151 38.675 93.9151 38.1178 93.9394 37.7324C93.9636 37.3471 93.9732 36.957 93.9903 36.5935C94.0243 35.9606 94.1476 35.3357 94.3562 34.7373C94.5083 34.2656 94.8375 33.8711 95.2745 33.6371L95.3861 33.579V33.0216L95.1631 33.0386C94.9482 33.0547 94.6357 33.0742 94.2253 33.0967C93.4694 33.1597 92.8853 33.201 92.4879 33.201C91.8021 33.201 90.8958 33.1403 89.7909 33.0386L89.5607 33.0192V33.5597L89.6502 33.6227C90.1139 33.9166 90.4839 34.3369 90.7165 34.8343C90.9134 35.357 91.0207 35.909 91.0339 36.4675C91.1478 38.7501 91.2156 40.9553 91.2352 43.0102C89.5388 43.0781 87.6003 43.1071 85.4701 43.1071C83.6819 43.1071 81.6658 43.0684 79.4752 42.986C79.4752 41.091 79.4872 39.717 79.5043 38.9077C79.5212 38.0983 79.5453 37.289 79.5746 36.6056C79.6156 35.9756 79.7402 35.3539 79.9454 34.7567C80.0959 34.2836 80.4244 33.8875 80.8612 33.6517L80.9751 33.596V33.0362L80.7498 33.0532C80.5341 33.0726 80.2238 33.0895 79.807 33.1089C79.0608 33.1816 78.4743 33.2156 78.0745 33.2156C77.3888 33.2156 76.4824 33.1597 75.3726 33.0532L75.1472 33.0337V33.5765L75.2369 33.642C75.7015 33.937 76.0736 34.3569 76.3104 34.8537C76.5031 35.3807 76.6087 35.9355 76.623 36.4965C76.6908 37.8269 76.7442 39.2227 76.7732 40.6331C76.8022 42.0433 76.829 43.4609 76.829 44.8252C76.829 48.4116 76.8072 51.1256 76.7732 52.9236C76.7665 53.3841 76.6305 53.8333 76.3808 54.2201C76.1377 54.5946 75.8042 54.9021 75.4114 55.1142L75.3 55.1797L75.2829 55.7806ZM105.774 53.7767C106.925 53.9349 108.086 54.0044 109.247 53.985C110.331 53.9918 111.403 53.7427 112.373 53.258C113.367 52.7519 114.249 52.0505 114.966 51.1959C115.728 50.2834 116.322 49.242 116.718 48.1208C117.147 46.9214 117.363 45.6558 117.355 44.3818C117.356 43.0037 117.141 41.6342 116.718 40.3228C116.362 39.1301 115.768 38.022 114.971 37.066C114.3 36.286 113.44 35.6905 112.475 35.3358C111.441 34.9606 110.349 34.7735 109.249 34.7834C107.812 34.7834 106.584 34.8197 105.629 34.89C104.776 34.953 104.175 35.0814 103.85 35.2608C103.824 35.4812 103.804 35.7866 103.79 36.1815C103.773 36.3464 103.766 36.4651 103.766 36.5451C103.746 36.9303 103.729 37.3156 103.71 37.7034C103.691 38.0911 103.686 38.646 103.686 39.3535C103.671 40.1847 103.664 41.9318 103.664 44.7016C103.664 47.1879 103.729 49.88 103.863 52.7152C103.866 52.8301 103.879 52.9443 103.901 53.057C104.459 53.4431 105.103 53.6868 105.777 53.7669M107.897 55.8316C107.321 55.8316 106.395 55.7806 105.144 55.6958C103.848 55.6086 102.891 55.5649 102.312 55.5649C101.854 55.5649 101.325 55.5649 100.744 55.6061C100.162 55.6473 99.6631 55.6619 99.2898 55.6958L99.0621 55.7175V55.0998L99.1832 55.0415C99.6658 54.767 100.08 54.3866 100.395 53.9293C100.737 53.5076 100.943 52.9921 100.986 52.451V50.9584C101.006 49.1822 101.013 47.1031 101.013 44.7816C101.013 43.4222 100.996 42.0118 100.964 40.5894C100.933 39.1669 100.88 37.7834 100.812 36.4481C100.766 35.5272 100.099 34.604 98.8415 33.7025L98.7494 33.6395V33.1283L98.9748 33.1453C99.4159 33.1816 99.966 33.213 100.635 33.2519C101.304 33.2906 101.846 33.3076 102.268 33.3076C102.869 33.3076 103.4 33.3076 103.833 33.2786C104.267 33.2494 104.803 33.2253 105.474 33.1694C106.145 33.1137 106.799 33.1065 107.35 33.0773C107.9 33.0483 108.481 33.041 109.148 33.0386H109.252C110.716 33.0328 112.17 33.2787 113.551 33.7655C114.862 34.2216 116.072 34.9287 117.113 35.8472C118.136 36.7634 118.955 37.8857 119.514 39.1404C120.103 40.4697 120.401 41.91 120.386 43.3639C120.402 45.0504 120.104 46.7252 119.507 48.3025C118.941 49.784 118.077 51.1334 116.967 52.267C115.846 53.4055 114.499 54.2963 113.013 54.8816C111.4 55.5101 109.684 55.8323 107.953 55.8316H107.904M128.017 45.3801C128.851 45.4238 129.714 45.4456 130.591 45.4456C131.468 45.4456 132.364 45.4238 133.215 45.3801L130.707 38.406L128.003 45.3801M141.117 55.7443C139.22 55.428 137.284 55.428 135.386 55.7443L135.144 55.7831V55.3688C135.144 55.1748 135.265 54.9106 135.537 54.518C135.902 53.9898 135.956 53.7378 135.956 53.6287C135.952 53.4658 135.932 53.3036 135.898 53.1442C135.857 52.9632 135.814 52.8017 135.767 52.6594L133.828 47.0667C132.587 46.9504 131.509 46.8921 130.625 46.8921C129.491 46.8884 128.359 46.9459 127.232 47.0642L125.012 53.1442C124.856 53.52 124.759 53.9184 124.726 54.3242C124.73 54.4906 124.767 54.6547 124.834 54.8069C124.902 54.959 124.999 55.0964 125.119 55.2112L125.182 55.2791V55.7783L124.94 55.7419C123.527 55.5359 122.092 55.5359 120.68 55.7419L120.156 55.8193L120.66 55.1748L120.716 55.1604C121.928 54.758 122.836 53.8445 123.382 52.4487L129.537 36.8068C129.572 36.6854 129.591 36.56 129.595 36.4335C129.574 35.9053 129.399 35.3948 129.091 34.9651C128.732 34.439 128.279 33.9831 127.756 33.6201L127.69 33.5741L127.537 33.0072L127.838 33.0337C128.221 33.07 128.693 33.1016 129.292 33.1259C129.89 33.15 130.402 33.1646 130.867 33.1646H131.696L132.907 36.4335L139.055 52.594C139.54 53.8881 140.267 54.7459 141.236 55.1531L141.367 55.2014V55.7927L141.117 55.7443ZM170.174 55.8122V55.2232L170.053 55.1675C169.526 54.9357 169.059 54.5847 168.688 54.1425C168.319 53.701 168.08 53.1645 168.001 52.594L165.761 36.5548C165.76 36.4917 165.75 36.429 165.735 36.3681V36.1524C165.745 35.637 165.877 35.1312 166.12 34.6767C166.326 34.2321 166.666 33.8615 167.089 33.6154L167.204 33.5597V32.9999L166.98 33.0192C166.764 33.0386 166.495 33.0532 166.169 33.07C165.441 33.1259 164.874 33.1476 164.509 33.1476H164.366L157.433 50.4737L157.246 50.4617L149.696 33.1476H149.557C148.651 33.1476 147.825 33.1162 147.086 33.0459L146.86 33.0265V33.5668L146.952 33.6298C147.951 34.3423 148.44 35.1614 148.44 36.0991L146.41 51.9034C146.329 52.6494 146.095 53.3705 145.721 54.0214C145.443 54.554 144.977 54.9643 144.413 55.1725L144.357 55.1942L143.851 55.8316L144.376 55.7539C145.117 55.6511 145.863 55.5994 146.611 55.5989C147.011 55.5989 147.515 55.6135 148.116 55.6402C148.562 55.6527 149.007 55.6906 149.448 55.7539L149.802 55.817L149.56 55.1652L149.477 55.1238C149.081 54.9691 148.742 54.6947 148.508 54.3389C148.298 53.9633 148.194 53.5377 148.208 53.1078C148.206 52.9289 148.215 52.75 148.234 52.5722L149.722 40.5942C152.422 46.4893 153.853 49.6216 154.016 49.9916C154.527 51.099 154.905 51.93 155.167 52.4898L155.86 54.0552C156.073 54.54 156.221 54.8671 156.313 55.0246C156.405 55.1821 156.466 55.3155 156.524 55.4123C156.73 55.7491 156.863 55.8776 157.009 55.8969H157.023C157.292 55.8969 157.401 55.5649 157.438 55.4679L163.334 40.5701L165.03 53.5924V53.7887L165.051 53.8324C165.067 54.0287 165.016 54.2246 164.908 54.3896C164.775 54.5496 164.618 54.6864 164.441 54.7944C164.232 54.9253 163.956 55.1337 163.956 55.4098V55.8266L164.198 55.7855C166.095 55.4705 168.031 55.4705 169.927 55.7855L170.174 55.8122ZM172.733 33.659C173.281 33.6595 173.818 33.8226 174.275 34.1279C174.731 34.4332 175.086 34.8668 175.295 35.374C175.504 35.8812 175.559 36.4392 175.451 36.9772C175.344 37.5154 175.079 38.0095 174.691 38.3972C174.303 38.785 173.808 39.0488 173.27 39.1553C172.731 39.2619 172.174 39.2065 171.667 38.996C171.16 38.7856 170.727 38.4296 170.423 37.973C170.118 37.5164 169.956 36.9799 169.956 36.4311C169.957 35.6954 170.251 34.9904 170.771 34.4705C171.292 33.9508 171.997 33.659 172.733 33.659ZM172.733 39.6976C173.379 39.6976 174.011 39.5061 174.548 39.1471C175.084 38.7882 175.504 38.278 175.751 37.6812C175.998 37.0843 176.063 36.4276 175.937 35.7939C175.811 35.1602 175.499 34.5782 175.043 34.1214C174.587 33.6645 174.004 33.3534 173.37 33.2273C172.737 33.1013 172.08 33.166 171.483 33.4132C170.887 33.6605 170.376 34.0792 170.017 34.6164C169.658 35.1535 169.467 35.7851 169.467 36.4311C169.467 37.2975 169.81 38.1284 170.424 38.7409C171.036 39.3535 171.867 39.6976 172.733 39.6976ZM172.438 35.3116H172.993C173.04 35.3117 173.085 35.3174 173.131 35.3285C173.372 35.4158 173.504 35.5709 173.504 35.7672V35.8713C173.469 35.9792 173.398 36.0721 173.305 36.1362C173.211 36.2001 173.098 36.2314 172.985 36.2251H172.447L172.438 35.3116ZM171.558 34.9844V34.9965C171.764 35.0741 171.866 35.1565 171.866 35.2389V37.5434C171.866 37.6354 171.762 37.7204 171.552 37.7978H172.748C172.711 37.7861 172.674 37.7715 172.639 37.7542C172.505 37.6767 172.438 37.6113 172.438 37.5555V36.5571C172.516 36.6347 172.796 36.9279 173.283 37.444C173.372 37.5288 173.419 37.5847 173.419 37.6113C173.419 37.667 173.339 37.73 173.176 37.7905H174.272L173.089 36.5692H173.237C173.375 36.5728 173.51 36.5437 173.635 36.4845C173.756 36.411 173.857 36.3072 173.927 36.1833C173.998 36.0592 174.034 35.9193 174.034 35.7769C174.03 35.615 173.983 35.4569 173.899 35.3189C173.839 35.2222 173.756 35.1414 173.658 35.0836C173.561 35.0259 173.45 34.9926 173.336 34.9868L171.558 34.9844Z" fill="black"/>
</g>
<defs>
<clipPath id="clip0_1317_23620">
<rect width="210" height="89.9999" fill="white"/>
</clipPath>
</defs>
</svg>
