<svg width="210" height="90" viewBox="0 0 210 90" fill="none" xmlns="http://www.w3.org/2000/svg">
<g clip-path="url(#clip0_1343_23619)">
<path d="M105.25 86.5C128.032 86.5 146.5 68.0317 146.5 45.25C146.5 22.4683 128.032 4 105.25 4C82.4683 4 64 22.4683 64 45.25C64 68.0317 82.4683 86.5 105.25 86.5Z" fill="#F1F2F2"/>
<path d="M100.558 54.8154C101.061 54.8573 101.55 54.8852 102.038 54.955C103.477 55.1505 104.817 55.5834 105.934 56.547C106.996 57.4686 107.526 58.6416 107.401 60.038C107.359 60.4569 107.191 60.8898 107.024 61.2808C106.549 62.37 105.851 63.3056 105.041 64.1574C103.91 65.3444 102.639 66.3637 101.187 67.1318C100.195 67.6624 99.1617 68.0534 98.0306 68.1791C97.486 68.2349 96.9554 68.193 96.4247 68.0953C95.8522 67.9836 95.2936 67.8719 94.7351 67.7043C94.3022 67.5786 93.9112 67.3552 93.6319 67.048C93.3806 67.1597 93.1432 67.2574 92.9058 67.3552C92.7941 67.411 92.7103 67.3691 92.5986 67.2993C91.9981 66.9083 91.7747 66.2939 91.6071 65.6376C91.3139 64.5344 91.1742 63.4033 91.0486 62.2583C90.8531 60.4569 90.6715 58.6555 90.4481 56.8542C90.3224 55.8348 90.1409 54.8294 89.8476 53.8519C89.8057 53.7122 89.8197 53.5447 89.8476 53.3911C90.0711 51.9807 90.8949 51.0311 92.1238 50.3748C93.0175 49.9 93.9671 49.7045 94.9725 49.6766C96.1734 49.6487 97.3184 49.8302 98.4076 50.3329C99.1477 50.6681 99.7761 51.1428 100.237 51.8271C100.796 52.6789 100.893 53.6005 100.628 54.578C100.6 54.6618 100.572 54.7316 100.558 54.8154ZM94.3301 65.0371C94.4698 64.9953 94.5954 64.9673 94.7072 64.9394C95.5171 64.7858 96.327 64.8277 97.1369 65.0092C97.3464 65.0511 97.5419 65.107 97.7653 65.0511C98.7288 64.7718 99.6225 64.3529 100.474 63.8502C101.605 63.1799 102.681 62.4258 103.532 61.4204C103.951 60.9317 104.287 60.415 104.426 59.7866C104.566 59.1862 104.44 58.865 103.923 58.5159C103.588 58.2925 103.225 58.1528 102.834 58.083C101.55 57.8037 100.265 57.8596 98.9941 58.0551C97.8491 58.2227 96.7459 58.5438 95.6707 58.9907C94.9445 59.2979 94.2463 59.647 93.6459 60.1497C93.59 60.2056 93.5202 60.3033 93.5202 60.3731C93.5342 60.6245 93.5621 60.8758 93.604 61.1272C93.7576 61.993 93.9112 62.8448 94.0648 63.7106C94.1626 64.1434 94.2463 64.5763 94.3301 65.0371ZM93.5481 57.0357C94.0089 56.8123 94.4418 56.6168 94.8608 56.3934C95.7265 55.9325 96.5365 55.3879 97.1509 54.6059C97.4162 54.2708 97.5977 53.9077 97.6815 53.4888C97.7234 53.3073 97.6815 53.1397 97.5279 53.0559C97.3324 52.9442 97.1229 52.8325 96.9135 52.7766C96.2153 52.5811 95.5031 52.623 94.8049 52.7348C94.1486 52.8325 93.5202 53.014 92.9337 53.3492C92.7801 53.433 92.7382 53.5307 92.7801 53.7122C92.9477 54.4384 93.1013 55.1505 93.2689 55.8767C93.3666 56.2397 93.4504 56.6168 93.5481 57.0357ZM84.7368 41.4378C83.3543 40.2927 81.9719 39.1477 80.5894 38.0026C79.3466 36.9553 78.1178 35.894 76.7633 34.9864C76.2606 34.6512 75.7439 34.3161 75.1434 34.1485C74.4313 33.953 73.747 34.2044 73.4258 34.8048C73.2164 35.2098 73.1605 35.6566 73.2164 36.1035C73.2443 36.299 73.2164 36.5085 73.3839 36.676C74.1101 37.4022 74.8083 38.1562 75.5624 38.8684C77.2799 40.4603 79.1511 41.8707 80.9944 43.309C82.1394 44.1887 83.2845 45.0964 84.4296 45.9901C84.5413 46.0739 84.6111 46.1856 84.6251 46.3252C84.6949 46.9117 84.8066 47.4982 84.8485 48.0847C84.9462 49.7604 84.7368 51.4082 84.3458 53.014C84.0386 54.2848 83.6615 55.5555 83.3124 56.8123C83.2985 56.8821 83.2705 56.9659 83.2845 57.0497C83.4102 57.7618 83.7593 58.3344 84.3877 58.7254C85.5188 59.4236 87.1107 58.8929 87.4598 57.6082C87.5855 57.1335 87.6692 56.6307 87.7391 56.142C87.9206 54.8294 88.0882 53.5307 88.2418 52.2181C88.3954 50.8636 88.549 49.523 88.6747 48.1685C88.8143 46.7162 88.94 45.25 89.0517 43.7977C89.2053 41.8288 89.3449 39.8459 89.4846 37.8769C89.5823 36.4805 89.6661 35.0701 89.7639 33.6598C89.8337 32.6404 89.1634 31.6908 88.158 31.7327C87.6134 31.7607 86.5521 31.9562 86.4544 32.5147C86.3426 33.0454 86.3008 33.2269 86.2449 33.5341C86.0215 34.735 86.0494 35.6985 85.9656 36.9134C85.8679 38.1702 85.7562 39.427 85.6305 40.6698C85.5886 41.0608 85.4629 41.4517 85.3652 41.8846C85.1138 41.7031 84.9183 41.5774 84.7368 41.4378ZM111.129 36.2711C110.668 36.7598 110.249 37.2206 109.83 37.6675C108.937 38.5891 107.973 39.4549 106.814 40.0274C105.823 40.5162 104.803 40.7535 103.7 40.586C103.155 40.5022 102.737 40.2369 102.443 39.7621C102.052 39.1337 101.941 38.4215 101.927 37.7094C101.885 35.7963 102.527 34.1066 103.574 32.5426C104.552 31.0764 105.781 29.8755 107.303 28.9678C108.364 28.3394 109.481 27.8786 110.71 27.753C111.436 27.6692 112.134 27.753 112.805 28.0881C113.67 28.5349 114.215 29.5124 114.159 30.4899C114.089 31.8025 114.047 33.1012 113.964 34.4138C113.838 36.4247 113.712 38.4355 113.559 40.4324C113.433 42.122 113.238 43.7977 112.93 45.4594C112.735 46.5068 112.483 47.5541 111.981 48.5036C111.297 49.8163 110.305 50.3888 108.741 50.3469C107.554 50.305 106.563 49.7325 105.697 48.9365C105.069 48.364 104.566 47.6937 104.328 46.8559C103.923 45.4594 104.342 44.1608 105.669 43.295C105.711 43.2671 105.767 43.2531 105.823 43.2531C106.2 43.281 106.549 43.3788 106.884 43.5464C107.345 43.7838 107.54 44.2027 107.694 44.6495C107.708 44.6775 107.666 44.7473 107.638 44.7892C107.554 44.873 107.456 44.9428 107.373 45.0266C106.996 45.3477 106.898 45.6689 107.093 46.1297C107.373 46.786 107.875 47.205 108.56 47.4144C108.923 47.5401 109.244 47.4563 109.397 47.2329C109.774 46.7023 109.984 46.0878 110.151 45.4734C110.431 44.4401 110.598 43.3928 110.71 42.3175C110.85 40.963 110.961 39.6085 111.073 38.2679C111.115 37.6954 111.129 37.1229 111.157 36.5503C111.129 36.4666 111.129 36.3967 111.129 36.2711ZM104.845 37.8909C104.901 37.8769 104.943 37.8909 104.971 37.863C105.292 37.7094 105.627 37.5977 105.92 37.4161C106.912 36.7877 107.778 35.9778 108.574 35.126C109.411 34.2463 110.165 33.3107 110.808 32.2773C111.087 31.8305 111.338 31.3697 111.506 30.853C111.045 30.7692 110.598 30.8111 110.165 30.9088C108.643 31.244 107.442 32.0958 106.465 33.2967C105.571 34.3999 105.055 35.6566 104.845 37.0531C104.789 37.3323 104.733 37.6116 104.845 37.8909ZM117.943 55.1924C117.804 55.5136 117.678 55.8208 117.538 56.142C116.854 57.6781 116.128 59.1722 115.137 60.5407C114.606 61.2808 114.02 61.965 113.265 62.4957C112.749 62.8727 112.162 63.0961 111.506 63.1101C110.766 63.1241 110.138 62.8308 109.579 62.356C109.09 61.9371 108.699 61.4484 108.406 60.8898C108.266 60.6245 108.224 60.3173 108.155 60.024C107.945 59.1303 107.819 58.2366 107.861 57.3289C107.959 54.6897 109.02 52.5672 111.157 50.9753C112.609 49.8861 114.243 49.1879 115.988 48.7689C116.407 48.6712 116.826 48.5874 117.259 48.5036C117.552 48.4338 117.846 48.3361 118.139 48.3081C118.376 48.2942 118.628 48.35 118.851 48.4338C119.144 48.5455 119.298 48.8108 119.368 49.132C119.535 49.914 119.717 50.696 119.898 51.478C120.457 53.9636 121.03 56.4632 121.588 58.9488C121.7 59.4515 121.784 59.9542 121.937 60.4429C122.244 61.3925 121.532 62.2862 120.373 62.1047C119.926 62.0349 119.563 61.8114 119.228 61.5322C119.158 61.4623 119.13 61.3227 119.116 61.211C118.781 59.4236 118.446 57.6362 118.125 55.8488C118.083 55.6393 118.041 55.4159 118.013 55.2064C117.971 55.2064 117.957 55.2064 117.943 55.1924ZM116.84 51.3244C116.756 51.3244 116.715 51.3244 116.673 51.3244C116.03 51.3942 115.43 51.5897 114.857 51.8829C113.67 52.4834 112.707 53.3631 111.911 54.4104C111.129 55.4438 110.501 56.547 110.431 57.8875C110.375 58.7114 110.584 59.4655 111.185 60.0799C111.422 60.3173 111.45 60.3173 111.729 60.1218C112.204 59.7866 112.581 59.3677 112.916 58.9069C114.508 56.7285 115.723 54.3406 116.673 51.8131C116.743 51.6595 116.784 51.5059 116.84 51.3244ZM125.135 32.794C125.009 33.0872 124.898 33.3526 124.772 33.6179C124.171 34.9864 123.529 36.3269 122.705 37.5837C122.119 38.4914 121.448 39.3292 120.597 39.9995C120.066 40.4184 119.479 40.6837 118.781 40.7256C117.943 40.7675 117.259 40.4324 116.659 39.8878C116.226 39.4968 115.877 39.036 115.597 38.5193C115.458 38.254 115.416 37.9468 115.346 37.6535C115.137 36.7458 115.011 35.8242 115.053 34.8886C115.165 32.2634 116.254 30.1408 118.39 28.5768C119.801 27.5295 121.379 26.8453 123.068 26.4264C123.515 26.3146 123.962 26.2309 124.409 26.1331C124.674 26.0773 124.939 25.9655 125.219 25.9376C125.694 25.8818 126.14 25.9655 126.42 26.3984C126.476 26.4822 126.517 26.5939 126.545 26.7056C126.894 28.2277 127.23 29.7638 127.565 31.2859C128.04 33.4084 128.528 35.517 129.003 37.6395C129.059 37.9049 129.143 38.1562 129.171 38.4215C129.24 39.2315 128.57 39.8319 127.704 39.7621C127.202 39.7202 126.783 39.4828 126.392 39.1756C126.35 39.1477 126.322 39.0918 126.322 39.036C126.043 37.5697 125.777 36.1035 125.498 34.6373C125.386 34.0508 125.275 33.4782 125.163 32.8917C125.177 32.8499 125.163 32.8359 125.135 32.794ZM124.032 28.9539C123.962 28.9539 123.934 28.9399 123.92 28.9399C123.864 28.9399 123.822 28.9399 123.766 28.9539C123.264 29.0237 122.775 29.1633 122.314 29.3868C120.778 30.1129 119.605 31.244 118.684 32.6404C118.139 33.4782 117.72 34.3719 117.636 35.3913C117.58 36.1873 117.72 36.9274 118.265 37.5558C118.656 37.9886 118.6 37.9747 119.075 37.6256C119.591 37.2485 119.968 36.7458 120.331 36.2292C121.714 34.2602 122.803 32.1377 123.697 29.9034C123.808 29.5962 123.906 29.275 124.032 28.9539ZM101.745 41.6472C101.703 43.4626 101.145 45.2221 99.9018 46.7162C98.9104 47.9171 97.6536 48.7271 96.1036 48.9644C94.0369 49.2996 92.1378 48.1825 91.3837 46.2275C91.1044 45.5153 91.0346 44.7752 91.0067 44.0351C90.9508 42.0801 91.2859 40.2089 92.0121 38.3936C92.5288 37.1089 93.213 35.9359 94.1905 34.9305C94.2882 34.8188 94.386 34.7629 94.5396 34.7909C94.6653 34.8188 94.7909 34.8188 94.9306 34.8328C95.3355 34.9026 95.6148 35.14 95.7545 35.517C95.7964 35.6427 95.8522 35.6846 95.9919 35.6706C97.1229 35.6008 98.1982 35.7963 99.1757 36.3828C100.405 37.1089 101.145 38.2121 101.508 39.5666C101.661 40.2229 101.731 40.8792 101.745 41.6472ZM99.0221 41.2981C98.9941 41.0747 98.9662 40.7815 98.9104 40.4882C98.659 39.413 98.0446 38.6729 96.9274 38.4076C96.1315 38.2121 95.5031 38.4215 94.9864 39.0499C94.6513 39.4549 94.4139 39.9157 94.2463 40.4044C93.8972 41.4099 93.7297 42.4572 93.7297 43.5324C93.7297 44.0211 93.7855 44.5099 93.8833 44.9847C94.0089 45.5712 94.5117 45.9622 95.0144 45.9761C95.7126 45.9901 96.3689 45.8365 96.9414 45.4315C98.3239 44.4401 98.9243 43.0437 99.0221 41.2981ZM119.116 45.8644C119.326 46.2275 119.549 46.5626 119.731 46.9396C120.401 48.3081 120.792 49.7744 121.127 51.2546C121.448 52.623 121.742 53.9915 122.063 55.346C122.258 56.156 122.482 56.9519 122.901 57.692C123.054 57.9713 123.278 58.1668 123.599 58.2645C124.367 58.5019 125.219 58.0411 125.498 57.2312C125.54 57.1055 125.568 56.9659 125.554 56.8402C125.261 55.4298 124.995 54.0055 124.898 52.5672C124.828 51.5618 124.814 50.5424 125.051 49.5509C125.233 48.7969 125.526 48.0987 126.057 47.5122C126.643 46.8559 127.397 46.4369 128.221 46.1856C128.766 46.018 129.338 45.9063 129.897 45.7806C130.246 45.6968 130.455 45.4455 130.469 45.0964C130.469 44.9847 130.483 44.873 130.455 44.7612C130.413 44.6076 130.469 44.4959 130.567 44.3703C130.693 44.2166 130.818 44.0351 130.958 43.8675C130.888 43.8396 130.846 43.8256 130.804 43.8117C130.246 43.7139 129.673 43.5883 129.115 43.5324C128.151 43.4207 127.188 43.5045 126.266 43.8396C124.73 44.3982 123.655 45.4734 122.929 46.9117C122.901 46.9676 122.859 47.0374 122.803 47.1351C122.775 47.0234 122.761 46.9396 122.733 46.8838C122.58 46.4788 122.454 46.0599 122.244 45.6968C121.825 44.9707 121.071 44.6914 120.289 44.9707C119.843 45.1383 119.424 45.4036 118.963 45.641C119.047 45.7387 119.089 45.7946 119.116 45.8644ZM128.207 57.3848C128.109 57.2591 127.872 56.9519 127.816 56.924C127.76 56.91 127.649 56.91 127.495 56.9659C127.537 57.3708 127.635 58.2087 127.635 58.2087L127.942 58.1668L127.844 57.4407C127.844 57.4407 128.137 57.6641 128.263 57.8177C128.361 57.6222 128.542 57.315 128.542 57.315L128.64 58.097L128.919 58.0551C128.919 58.0551 128.821 57.2172 128.766 56.8123C128.64 56.7843 128.542 56.7983 128.472 56.8402C128.444 56.8961 128.277 57.2591 128.207 57.3848ZM126.336 57.0776C126.252 57.0916 126.182 57.1055 126.196 57.2172C126.21 57.329 126.266 57.3708 126.364 57.3569C126.434 57.3429 126.503 57.3429 126.601 57.3289C126.643 57.6222 126.671 57.9015 126.699 58.1947C126.713 58.2925 126.727 58.3483 126.839 58.3344C126.936 58.3204 127.02 58.3064 127.006 58.1808C126.978 57.9992 126.894 57.301 126.894 57.301C126.894 57.301 127.09 57.2731 127.188 57.2591C127.23 57.2591 127.244 57.1893 127.244 57.1195C127.244 57.0776 127.23 56.9798 127.118 56.9938C127.006 57.0078 126.629 57.0357 126.336 57.0776Z" fill="black"/>
</g>
<defs>
<clipPath id="clip0_1343_23619">
<rect width="210" height="89.9999" fill="white"/>
</clipPath>
</defs>
</svg>
